<?xml version="1.0" encoding="UTF-8" ?>
<!DOCTYPE svg PUBLIC "-//W3C//DTD SVG 1.1//EN" "http://www.w3.org/Graphics/SVG/1.1/DTD/svg11.dtd">
<svg width="57pt" height="53pt" viewBox="0 0 57 53" version="1.1" xmlns="http://www.w3.org/2000/svg">
<g id="#d20a12ff">
<path fill="#d20a12" opacity="1.00" d=" M 22.26 0.00 L 22.78 0.00 C 25.90 2.84 31.09 2.86 34.20 0.00 L 34.72 0.00 C 37.21 4.05 41.71 5.56 46.24 5.78 C 47.46 9.92 50.26 13.11 54.14 14.97 C 53.31 19.13 54.32 23.15 57.00 26.42 L 57.00 26.57 C 54.32 29.84 53.31 33.86 54.14 38.03 C 50.26 39.90 47.45 43.07 46.24 47.22 C 41.72 47.44 37.21 48.93 34.74 53.00 L 34.21 53.00 C 31.10 50.16 25.91 50.14 22.80 53.00 L 22.28 53.00 C 19.78 48.94 15.27 47.43 10.74 47.21 C 9.55 43.06 6.73 39.89 2.86 38.03 C 3.68 33.87 2.69 29.85 0.00 26.58 L 0.00 26.44 C 2.68 23.17 3.69 19.14 2.86 14.97 C 6.72 13.10 9.55 9.93 10.75 5.79 C 15.27 5.56 19.79 4.07 22.26 0.00 M 13.29 8.57 C 12.15 12.14 9.84 15.01 6.37 16.53 C 6.46 18.33 6.55 20.12 6.64 21.92 C 5.72 23.48 4.81 25.06 3.92 26.64 C 4.85 28.11 5.76 29.59 6.67 31.08 C 6.56 32.87 6.46 34.67 6.36 36.47 C 9.84 37.98 12.15 40.86 13.29 44.43 C 17.10 44.42 20.46 45.94 22.99 48.76 C 26.61 47.27 30.41 47.28 34.04 48.75 C 36.55 45.93 39.90 44.41 43.70 44.44 C 44.85 40.87 47.16 38.00 50.62 36.46 C 49.89 32.85 50.70 29.40 53.07 26.57 C 52.17 25.00 51.26 23.45 50.35 21.90 C 50.45 20.10 50.54 18.31 50.63 16.52 C 47.15 15.02 44.85 12.14 43.72 8.57 C 39.89 8.61 36.55 7.03 33.99 4.24 C 30.39 5.73 26.60 5.73 23.00 4.24 C 20.46 7.06 17.10 8.59 13.29 8.57 Z" />
<path fill="#d20a12" opacity="1.00" d=" M 19.37 16.45 C 22.61 14.35 27.76 17.10 27.06 21.12 C 26.56 25.12 20.91 26.57 18.29 23.68 C 16.10 21.68 16.74 17.77 19.37 16.45 M 21.06 19.12 C 19.85 19.85 20.45 22.50 22.06 21.91 C 24.82 22.20 23.49 17.57 21.06 19.12 Z" />
<path fill="#d20a12" opacity="1.00" d=" M 18.79 33.22 C 24.50 28.00 30.11 22.68 35.81 17.45 C 36.41 17.96 37.62 18.97 38.22 19.47 C 32.76 25.11 26.78 30.21 21.11 35.64 C 20.37 34.80 19.59 34.00 18.79 33.22 Z" />
<path fill="#d20a12" opacity="1.00" d=" M 32.35 28.46 C 35.60 26.41 40.64 29.13 40.03 33.13 C 39.51 37.12 33.91 38.61 31.25 35.74 C 29.02 33.73 29.69 29.76 32.35 28.46 M 34.08 31.10 C 32.29 32.37 34.13 34.91 36.03 33.89 C 37.38 32.42 36.02 30.33 34.08 31.10 Z" />
</g>
</svg>
