<?xml version="1.0" encoding="UTF-8" ?>
<!DOCTYPE svg PUBLIC "-//W3C//DTD SVG 1.1//EN" "http://www.w3.org/Graphics/SVG/1.1/DTD/svg11.dtd">
<svg width="52pt" height="52pt" viewBox="0 0 52 52" version="1.1" xmlns="http://www.w3.org/2000/svg">
<g id="#d20a12ff">
<path fill="#d20a12" opacity="1.00" d=" M 25.93 0.00 L 26.00 0.00 C 27.22 2.26 28.31 4.58 29.40 6.90 C 32.01 7.34 34.64 7.71 37.25 8.11 C 35.43 10.01 33.14 11.60 31.77 13.86 C 31.96 16.37 32.52 18.83 32.95 21.30 C 30.63 20.10 28.32 18.88 26.00 17.67 C 23.68 18.88 21.38 20.10 19.06 21.30 C 19.48 18.76 19.92 16.22 20.40 13.69 C 18.55 11.79 16.67 9.94 14.75 8.10 C 17.37 7.71 19.99 7.34 22.60 6.90 C 23.68 4.58 24.81 2.30 25.93 0.00 M 25.92 7.09 C 25.62 7.75 25.01 9.06 24.70 9.72 C 23.90 9.87 22.30 10.15 21.49 10.30 C 22.23 11.02 22.98 11.74 23.72 12.46 C 23.59 13.24 23.33 14.80 23.20 15.58 C 23.90 15.22 25.31 14.49 26.01 14.13 C 26.70 14.49 28.09 15.22 28.79 15.59 C 28.66 14.80 28.41 13.24 28.28 12.45 C 29.02 11.74 29.76 11.02 30.51 10.31 C 29.72 10.16 28.15 9.87 27.36 9.72 C 26.88 8.84 26.40 7.96 25.92 7.09 Z" />
<path fill="#d20a12" opacity="1.00" d=" M 20.17 26.17 C 22.30 22.00 28.83 21.64 31.42 25.54 C 33.50 28.16 32.67 31.69 31.02 34.28 C 32.66 35.65 34.04 37.30 35.19 39.10 C 35.92 38.56 36.66 38.02 37.40 37.48 C 35.92 35.08 34.82 32.01 36.40 29.37 C 38.42 25.17 44.92 24.62 47.61 28.42 C 49.82 31.04 49.06 34.72 47.34 37.37 C 49.65 39.11 51.43 41.49 52.00 44.38 L 52.00 52.00 L 0.00 52.00 L 0.00 44.45 C 0.52 41.52 2.33 39.12 4.67 37.37 C 0.91 33.04 4.00 25.35 9.98 25.84 C 15.79 25.89 18.25 33.35 14.60 37.48 C 15.34 38.02 16.08 38.56 16.81 39.10 C 17.96 37.29 19.33 35.66 20.97 34.28 C 19.53 31.87 18.53 28.77 20.17 26.17 M 24.27 26.34 C 21.79 27.55 21.83 31.50 24.34 32.66 C 26.70 34.10 30.08 31.76 29.54 29.04 C 29.40 26.61 26.33 25.05 24.27 26.34 M 8.14 29.30 C 6.04 30.21 5.39 33.23 6.99 34.89 C 8.56 36.91 12.08 36.30 12.97 33.94 C 14.44 31.10 10.90 27.72 8.14 29.30 M 41.14 29.13 C 38.69 29.89 37.87 33.40 39.83 35.11 C 41.50 36.89 44.76 36.19 45.61 33.93 C 46.98 31.26 43.89 27.99 41.14 29.13 M 21.23 38.26 C 18.49 41.12 19.59 45.37 19.37 48.93 C 23.79 48.95 28.21 48.95 32.63 48.92 C 32.41 45.38 33.49 41.16 30.80 38.29 C 28.37 35.55 23.67 35.53 21.23 38.26 M 5.10 41.12 C 2.86 43.08 3.05 46.23 3.01 48.93 C 7.46 48.95 11.91 48.94 16.35 48.93 C 16.24 46.57 16.57 43.92 14.98 41.95 C 12.80 38.77 7.78 38.34 5.10 41.12 M 37.40 41.47 C 35.46 43.45 35.72 46.38 35.65 48.93 C 40.09 48.94 44.54 48.95 48.99 48.93 C 48.89 46.47 49.19 43.68 47.42 41.69 C 45.05 38.57 39.91 38.45 37.40 41.47 Z" />
</g>
</svg>
