<?xml version="1.0" encoding="UTF-8" ?>
<!DOCTYPE svg PUBLIC "-//W3C//DTD SVG 1.1//EN" "http://www.w3.org/Graphics/SVG/1.1/DTD/svg11.dtd">
<svg width="43pt" height="49pt" viewBox="0 0 43 49" version="1.1" xmlns="http://www.w3.org/2000/svg">
<g id="#d20a12ff">
<path fill="#d20a12" opacity="1.00" d=" M 18.00 0.00 L 24.34 0.00 C 25.11 2.30 27.07 3.75 28.56 5.54 C 29.82 7.46 30.60 9.67 32.08 11.45 C 32.10 11.81 32.15 12.53 32.18 12.89 C 29.47 14.72 29.22 18.40 27.19 20.83 C 31.22 22.95 34.22 26.46 35.93 30.65 C 37.33 30.67 38.73 30.69 40.13 30.71 C 40.12 32.07 40.12 33.44 40.12 34.80 C 40.79 34.81 42.12 34.82 42.79 34.82 C 42.79 38.02 42.84 41.21 43.00 44.40 L 43.00 44.45 C 42.28 44.49 40.84 44.58 40.12 44.62 C 40.12 46.08 40.12 47.54 40.13 49.00 L 2.82 49.00 C 2.81 47.52 2.81 46.05 2.81 44.57 C 2.16 44.57 0.84 44.55 0.18 44.55 C 0.19 41.31 0.19 38.07 0.19 34.83 C 0.85 34.82 2.16 34.80 2.82 34.79 C 2.82 33.43 2.82 32.06 2.81 30.70 C 4.18 30.69 5.54 30.68 6.91 30.67 C 8.63 26.49 11.60 22.96 15.63 20.85 C 13.45 18.37 13.50 14.32 10.33 12.75 C 10.87 11.78 11.41 10.82 11.97 9.86 C 13.00 6.73 14.90 4.00 17.72 2.24 C 17.79 1.68 17.93 0.56 18.00 0.00 M 20.69 2.89 C 20.69 4.63 20.69 6.36 20.68 8.10 C 18.92 8.12 17.46 7.65 17.31 5.60 C 16.38 7.21 15.51 8.85 14.75 10.56 C 19.17 10.66 23.58 10.66 27.99 10.55 C 27.24 8.92 26.42 7.31 25.55 5.74 C 25.20 7.59 23.88 8.23 22.14 8.13 C 22.13 6.37 22.12 4.62 22.12 2.86 L 20.69 2.89 M 15.13 13.62 C 15.82 16.53 17.64 19.69 20.98 19.83 C 24.64 20.20 27.03 16.83 27.64 13.62 C 23.47 13.53 19.30 13.53 15.13 13.62 M 17.24 23.29 C 17.19 23.87 17.09 25.04 17.04 25.62 C 19.99 25.62 22.93 25.62 25.88 25.62 C 25.84 25.05 25.76 23.91 25.71 23.33 C 22.91 22.74 20.05 22.72 17.24 23.29 M 9.87 30.60 C 17.57 30.75 25.27 30.74 32.96 30.60 C 31.71 28.64 30.30 26.78 28.76 25.04 C 28.71 25.93 28.62 27.69 28.58 28.57 C 23.86 28.56 19.13 28.56 14.41 28.57 C 14.37 27.66 14.29 25.84 14.25 24.93 C 12.62 26.68 11.17 28.58 9.87 30.60 M 5.20 33.70 C 6.47 35.69 8.83 37.42 8.61 40.05 C 8.56 42.35 6.43 43.69 5.07 45.25 C 9.76 47.15 15.10 45.66 20.06 46.12 C 20.06 41.96 20.06 37.79 20.06 33.63 C 15.11 33.64 10.15 33.56 5.20 33.70 M 22.88 33.63 C 22.88 37.79 22.88 41.96 22.88 46.12 C 27.78 46.11 32.68 46.15 37.58 46.11 C 36.93 43.55 33.92 41.94 34.43 39.07 C 34.87 36.95 36.63 35.47 37.76 33.71 C 32.80 33.56 27.84 33.64 22.88 33.63 M 2.88 37.30 C 2.97 38.96 3.08 40.61 3.23 42.26 C 4.08 41.48 5.61 41.17 5.85 39.87 C 5.98 38.11 4.02 37.97 2.88 37.30 M 37.52 38.55 C 36.31 40.42 38.50 41.47 39.82 42.23 C 39.94 40.59 40.03 38.94 40.09 37.29 C 39.45 37.60 38.16 38.24 37.52 38.55 Z" />
</g>
</svg>
