<?xml version="1.0" encoding="UTF-8" ?>
<!DOCTYPE svg PUBLIC "-//W3C//DTD SVG 1.1//EN" "http://www.w3.org/Graphics/SVG/1.1/DTD/svg11.dtd">
<svg width="53pt" height="43pt" viewBox="0 0 53 43" version="1.1" xmlns="http://www.w3.org/2000/svg">
<g id="#d20a12ff">
<path fill="#d20a12" opacity="1.00" d=" M 0.00 0.25 C 11.58 0.25 23.16 0.25 34.75 0.25 C 34.75 3.33 34.75 6.41 34.76 9.50 C 38.65 9.49 42.55 9.51 46.44 9.49 C 48.60 14.55 50.92 19.54 53.00 24.63 L 53.00 38.86 C 51.32 38.88 49.65 38.90 47.97 38.92 C 46.63 40.52 45.39 42.75 43.01 42.77 C 40.36 43.13 38.73 40.78 37.35 38.93 C 30.12 38.84 22.88 38.84 15.65 38.93 C 14.27 40.77 12.65 43.13 9.99 42.77 C 7.61 42.76 6.37 40.53 5.03 38.93 C 3.35 38.90 1.68 38.88 0.00 38.86 L 0.00 0.25 M 3.13 3.63 C 3.12 10.96 3.12 18.29 3.13 25.63 C 12.63 25.62 22.13 25.63 31.62 25.62 C 31.62 18.29 31.63 10.96 31.62 3.62 C 22.12 3.63 12.62 3.62 3.13 3.63 M 34.75 12.88 C 34.75 20.46 34.75 28.04 34.75 35.61 C 38.35 36.61 38.75 31.74 42.01 31.65 C 44.73 31.15 46.66 33.35 47.85 35.46 C 48.35 35.48 49.35 35.52 49.86 35.54 C 49.87 32.61 49.89 29.68 49.87 26.75 C 46.31 26.76 42.75 26.74 39.19 26.75 C 39.19 22.13 39.18 17.50 39.18 12.88 C 37.71 12.88 36.23 12.88 34.75 12.88 M 42.40 12.60 C 42.36 16.17 42.38 19.74 42.38 23.31 C 44.57 23.30 46.76 23.31 48.95 23.31 C 47.34 20.03 46.27 16.48 44.46 13.30 C 43.94 13.13 42.91 12.78 42.40 12.60 M 3.10 29.00 C 3.15 31.19 3.13 33.39 3.17 35.58 C 3.67 35.55 4.67 35.47 5.18 35.44 C 6.29 33.67 7.66 31.60 10.02 31.63 C 12.57 31.31 14.37 33.42 15.44 35.43 C 20.83 35.58 26.23 35.46 31.62 35.50 C 31.62 33.34 31.62 31.17 31.64 29.01 C 22.12 28.99 12.61 29.00 3.10 29.00 M 9.26 35.27 C 7.39 36.52 8.63 40.18 10.99 39.22 C 13.73 38.33 11.82 33.72 9.26 35.27 M 41.28 35.52 C 39.59 37.17 41.68 40.63 43.86 38.96 C 46.03 37.36 43.46 33.57 41.28 35.52 Z" />
<path fill="#d20a12" opacity="1.00" d=" M 9.56 6.88 C 14.77 6.87 19.98 6.87 25.18 6.88 C 25.19 12.02 25.19 17.17 25.19 22.31 C 19.98 22.31 14.77 22.31 9.56 22.31 C 9.56 17.17 9.56 12.02 9.56 6.88 M 18.95 10.31 C 18.94 11.09 18.94 12.66 18.94 13.44 C 18.16 13.44 16.60 13.43 15.82 13.43 C 15.81 12.65 15.80 11.08 15.79 10.30 C 15.02 10.30 13.47 10.32 12.69 10.32 C 12.69 13.19 12.69 16.06 12.69 18.93 C 15.81 18.94 18.93 18.94 22.06 18.94 C 22.06 16.06 22.06 13.19 22.06 10.31 C 21.28 10.31 19.72 10.31 18.95 10.31 Z" />
</g>
</svg>
