<?xml version="1.0" encoding="UTF-8" ?>
<!DOCTYPE svg PUBLIC "-//W3C//DTD SVG 1.1//EN" "http://www.w3.org/Graphics/SVG/1.1/DTD/svg11.dtd">
<svg width="37pt" height="47pt" viewBox="0 0 37 47" version="1.1" xmlns="http://www.w3.org/2000/svg">
<g id="#d20a12ff">
<path fill="#d20a12" opacity="1.00" d=" M 0.56 0.00 L 27.35 0.00 C 30.46 2.93 33.39 6.04 36.44 9.04 C 36.44 21.69 36.44 34.35 36.44 47.00 L 0.56 47.00 C 0.56 31.33 0.56 15.67 0.56 0.00 M 3.38 2.82 C 3.38 16.61 3.36 30.39 3.39 44.18 C 13.46 44.19 23.54 44.19 33.62 44.18 C 33.64 33.15 33.61 22.11 33.63 11.07 C 30.88 11.06 28.13 11.06 25.38 11.05 C 25.37 8.31 25.37 5.56 25.37 2.82 C 18.04 2.81 10.71 2.82 3.38 2.82 M 28.50 8.01 C 29.04 8.05 30.14 8.15 30.68 8.19 C 31.15 6.93 29.52 5.74 28.50 5.29 C 27.75 6.11 27.75 7.01 28.50 8.01 Z" />
<path fill="#d20a12" opacity="1.00" d=" M 13.35 12.84 C 14.04 13.49 14.73 14.14 15.41 14.79 C 13.69 16.53 11.96 18.27 10.22 20.00 C 8.97 18.74 7.71 17.49 6.45 16.24 C 6.94 15.73 7.91 14.71 8.39 14.20 C 9.03 14.78 9.66 15.36 10.30 15.94 C 11.31 14.91 12.33 13.87 13.35 12.84 Z" />
<path fill="#d20a12" opacity="1.00" d=" M 17.06 16.57 C 21.69 16.56 26.31 16.56 30.94 16.57 C 30.94 17.27 30.94 18.67 30.94 19.37 C 26.31 19.38 21.69 19.38 17.06 19.37 C 17.06 18.67 17.06 17.27 17.06 16.57 Z" />
<path fill="#d20a12" opacity="1.00" d=" M 13.39 21.10 C 14.06 21.77 14.73 22.45 15.40 23.13 C 13.69 24.85 11.98 26.56 10.26 28.27 C 9.00 27.02 7.73 25.77 6.46 24.53 C 6.93 24.01 7.88 22.99 8.35 22.47 C 8.82 22.91 9.76 23.77 10.23 24.21 C 11.29 23.17 12.34 22.13 13.39 21.10 Z" />
<path fill="#d20a12" opacity="1.00" d=" M 17.06 24.88 C 21.69 24.87 26.31 24.87 30.94 24.88 C 30.94 25.58 30.94 26.99 30.94 27.69 C 26.31 27.69 21.69 27.69 17.06 27.69 C 17.06 26.98 17.06 25.58 17.06 24.88 Z" />
<path fill="#d20a12" opacity="1.00" d=" M 10.26 32.46 C 11.30 31.42 12.34 30.38 13.38 29.34 C 14.05 30.02 14.73 30.71 15.40 31.39 C 13.68 33.10 11.97 34.82 10.25 36.53 C 8.98 35.26 7.71 34.00 6.45 32.73 C 6.93 32.24 7.90 31.24 8.38 30.75 C 8.85 31.18 9.79 32.03 10.26 32.46 Z" />
<path fill="#d20a12" opacity="1.00" d=" M 17.06 33.13 C 21.69 33.12 26.31 33.12 30.94 33.13 C 30.94 33.83 30.94 35.23 30.94 35.93 C 26.31 35.94 21.68 35.94 17.05 35.93 C 17.06 35.23 17.06 33.83 17.06 33.13 Z" />
</g>
</svg>
