<?xml version="1.0" encoding="UTF-8" ?>
<!DOCTYPE svg PUBLIC "-//W3C//DTD SVG 1.1//EN" "http://www.w3.org/Graphics/SVG/1.1/DTD/svg11.dtd">
<svg width="52pt" height="44pt" viewBox="0 0 52 44" version="1.1" xmlns="http://www.w3.org/2000/svg">
<g id="#d20a12ff">
<path fill="#d20a12" opacity="1.00" d=" M 15.25 0.00 L 36.64 0.00 C 37.40 5.22 36.82 10.51 37.01 15.76 C 40.15 15.75 43.29 15.75 46.43 15.76 C 46.44 20.90 46.44 26.04 46.44 31.18 C 48.29 31.18 50.15 31.18 52.00 31.19 L 52.00 43.62 C 48.95 43.63 45.89 43.63 42.84 43.62 C 42.82 42.81 42.80 41.18 42.78 40.37 C 38.74 40.38 34.69 40.37 30.64 40.38 C 30.63 41.19 30.61 42.81 30.60 43.62 C 27.53 43.63 24.46 43.63 21.39 43.62 C 21.38 42.81 21.37 41.19 21.36 40.38 C 17.31 40.38 13.27 40.38 9.22 40.37 C 9.21 41.18 9.17 42.81 9.16 43.62 C 6.11 43.63 3.05 43.63 0.00 43.62 L 0.00 31.19 C 1.85 31.18 3.71 31.18 5.56 31.17 C 5.56 26.03 5.56 20.89 5.57 15.76 C 8.71 15.75 11.85 15.75 14.99 15.76 C 15.09 10.50 14.77 5.24 15.25 0.00 M 18.11 3.53 C 18.14 7.60 18.12 11.68 18.13 15.75 C 23.38 15.75 28.62 15.75 33.87 15.75 C 33.88 11.67 33.87 7.59 33.88 3.51 C 33.07 3.51 31.44 3.50 30.63 3.50 C 30.63 5.82 30.62 8.13 30.61 10.44 C 27.54 10.44 24.46 10.44 21.39 10.45 C 21.38 8.13 21.37 5.81 21.37 3.50 C 20.55 3.50 18.92 3.52 18.11 3.53 M 25.35 4.03 C 23.83 4.98 25.15 7.74 26.77 6.59 C 28.17 5.78 26.76 2.85 25.35 4.03 M 8.69 18.88 C 8.68 22.98 8.68 27.08 8.69 31.18 C 13.94 31.19 19.19 31.19 24.43 31.18 C 24.44 27.08 24.44 22.98 24.43 18.88 C 23.62 18.88 22.00 18.88 21.19 18.88 C 21.19 21.19 21.18 23.50 21.18 25.81 C 18.10 25.82 15.02 25.82 11.95 25.81 C 11.94 23.50 11.93 21.19 11.93 18.88 C 11.12 18.88 9.50 18.88 8.69 18.88 M 15.06 18.88 C 15.07 20.15 15.07 21.43 15.07 22.70 C 15.82 22.69 17.31 22.69 18.05 22.68 C 18.05 21.42 18.06 20.15 18.06 18.88 C 17.31 18.88 15.81 18.88 15.06 18.88 M 27.57 18.88 C 27.56 22.98 27.56 27.08 27.57 31.18 C 32.81 31.19 38.06 31.19 43.31 31.18 C 43.32 27.08 43.32 22.98 43.31 18.88 C 42.50 18.88 40.88 18.88 40.07 18.88 C 40.07 21.19 40.06 23.50 40.05 25.81 C 36.98 25.82 33.90 25.82 30.82 25.81 C 30.81 23.50 30.81 21.19 30.81 18.89 C 30.00 18.88 28.38 18.88 27.57 18.88 M 33.94 18.88 C 33.94 20.15 33.95 21.42 33.95 22.68 C 34.70 22.69 36.18 22.70 36.92 22.70 C 36.93 21.43 36.93 20.15 36.94 18.88 C 36.19 18.88 34.69 18.88 33.94 18.88 M 3.07 34.25 C 3.06 36.33 3.06 38.41 3.06 40.49 C 3.80 40.49 5.30 40.50 6.04 40.50 C 6.05 39.68 6.07 38.05 6.09 37.24 C 12.22 37.26 18.36 37.24 24.49 37.25 C 24.50 38.06 24.51 39.69 24.51 40.50 C 25.26 40.50 26.74 40.50 27.49 40.50 C 27.49 39.69 27.50 38.06 27.50 37.25 C 33.64 37.24 39.78 37.26 45.92 37.24 C 45.93 38.05 45.95 39.68 45.96 40.49 C 46.70 40.49 48.19 40.50 48.94 40.50 C 48.94 38.41 48.94 36.33 48.93 34.25 C 33.64 34.25 18.36 34.25 3.07 34.25 Z" />
</g>
</svg>
