<?xml version="1.0" encoding="UTF-8" ?>
<!DOCTYPE svg PUBLIC "-//W3C//DTD SVG 1.1//EN" "http://www.w3.org/Graphics/SVG/1.1/DTD/svg11.dtd">
<svg width="576pt" height="460pt" viewBox="0 0 576 460" version="1.1" xmlns="http://www.w3.org/2000/svg">
<g id="#be5f0fff">
<path fill="#000" opacity="1.00" d=" M 49.25 11.29 C 49.35 10.66 49.56 9.41 49.66 8.79 C 51.66 9.12 55.57 7.98 54.76 11.37 C 77.27 11.44 99.78 11.43 122.29 11.39 C 122.38 10.75 122.57 9.48 122.66 8.84 C 124.24 8.86 125.82 8.88 127.40 8.89 C 127.48 9.45 127.64 10.56 127.72 11.11 C 130.24 11.27 132.93 11.45 134.98 9.70 C 135.46 10.07 136.41 10.81 136.89 11.19 C 136.31 12.03 135.72 12.87 135.14 13.70 C 137.35 14.99 139.37 16.59 141.12 18.45 C 142.20 17.24 143.64 16.64 145.06 17.65 C 144.14 20.22 144.47 22.90 144.97 25.50 C 145.68 25.52 147.10 25.57 147.82 25.59 C 148.08 28.12 147.22 30.46 146.54 32.81 C 148.02 41.62 149.97 50.36 151.27 59.20 C 148.10 50.86 147.86 41.77 145.72 33.16 C 145.43 31.44 143.62 30.77 142.47 29.73 C 142.87 28.08 143.28 26.42 143.72 24.78 C 141.44 18.18 135.35 14.17 128.98 12.13 C 127.42 13.59 125.40 14.11 123.29 14.07 C 122.16 12.81 120.89 11.46 119.01 11.81 C 100.68 11.76 82.34 11.86 64.01 11.78 C 60.70 11.89 56.94 11.00 54.16 13.30 C 52.37 14.74 50.05 13.51 48.06 13.22 C 47.15 13.48 46.25 13.74 45.34 14.00 C 45.03 12.45 44.10 10.60 46.06 9.75 C 47.14 10.23 48.20 10.74 49.25 11.29 Z" />
<path fill="#000" opacity="1.00" d=" M 41.62 18.80 C 40.36 17.15 39.68 15.41 41.68 14.03 C 42.24 14.38 43.36 15.08 43.92 15.43 C 43.63 16.29 43.35 17.16 43.06 18.03 C 44.77 20.47 44.70 23.49 42.19 25.34 C 46.35 27.27 42.47 31.79 43.74 35.13 C 42.87 35.44 42.00 35.74 41.13 36.05 C 40.82 35.56 40.21 34.57 39.90 34.07 C 40.37 33.49 41.31 32.33 41.78 31.76 C 41.13 31.50 39.82 30.98 39.17 30.72 C 39.17 29.19 39.16 27.65 39.15 26.11 C 39.84 26.06 41.20 25.95 41.89 25.89 L 41.70 24.21 C 41.09 24.26 39.88 24.36 39.27 24.41 C 39.22 22.68 39.17 20.95 39.11 19.22 C 39.74 19.12 40.99 18.90 41.62 18.80 Z" />
<path fill="#000" opacity="1.00" d=" M 48.13 37.61 C 50.34 36.02 53.87 35.30 55.59 37.97 C 62.37 38.52 69.19 38.13 75.98 38.26 C 89.21 38.16 102.45 38.47 115.68 38.10 C 117.32 36.26 119.72 36.09 122.02 36.04 C 121.83 39.04 120.88 41.95 120.86 44.96 C 135.63 124.19 150.57 203.41 165.33 282.65 C 169.99 306.66 174.05 330.78 179.04 354.72 C 179.71 354.89 181.03 355.25 181.69 355.43 C 181.70 356.84 181.71 358.25 181.73 359.67 C 179.55 360.27 176.89 360.46 175.63 362.64 C 170.57 370.18 166.47 378.80 166.00 388.00 C 165.70 390.67 167.78 393.16 166.91 395.79 C 165.12 400.50 166.68 405.49 166.87 410.32 C 166.39 408.98 165.84 407.67 165.29 406.37 C 165.27 411.26 165.16 416.15 165.28 421.04 C 165.21 422.64 166.16 423.97 166.79 425.37 C 165.55 426.50 164.19 426.31 162.92 425.34 C 163.45 424.27 163.97 423.20 164.47 422.13 C 164.56 415.77 164.46 409.42 164.49 403.07 C 164.39 400.65 164.84 397.76 162.46 396.27 C 162.42 395.96 162.32 395.33 162.28 395.02 C 162.27 394.41 162.27 393.21 162.26 392.60 C 162.69 392.31 163.55 391.73 163.98 391.44 C 164.91 387.63 164.71 383.59 163.37 379.90 C 163.89 378.49 165.70 378.82 166.87 378.44 C 167.74 375.42 168.90 372.49 170.40 369.73 C 169.63 368.83 168.86 367.94 168.10 367.05 C 172.18 365.24 176.36 361.77 176.58 357.00 C 176.65 355.95 177.10 355.10 177.95 354.43 C 177.17 349.63 176.19 344.86 175.32 340.08 C 173.50 330.38 171.65 320.70 169.88 311.00 C 168.18 302.19 166.58 293.37 164.89 284.56 C 163.22 275.53 161.50 266.51 159.82 257.48 C 156.43 239.34 152.98 221.21 149.61 203.06 C 147.93 194.05 146.23 185.04 144.54 176.03 C 142.80 166.72 141.06 157.41 139.31 148.10 C 137.61 139.08 135.93 130.05 134.23 121.03 C 132.55 111.99 130.84 102.96 129.15 93.92 C 127.59 85.80 126.18 77.66 124.51 69.57 C 124.30 68.23 124.07 66.91 123.84 65.58 C 122.33 57.79 121.01 49.97 119.38 42.21 C 118.10 41.49 116.88 40.66 116.18 39.32 C 95.74 39.41 75.29 38.97 54.87 39.52 C 54.70 39.99 54.37 40.93 54.21 41.40 C 52.71 41.41 51.22 41.41 49.73 41.41 C 49.59 40.88 49.33 39.81 49.19 39.27 C 47.76 39.51 45.31 41.50 44.80 39.10 C 44.99 38.53 45.38 37.39 45.57 36.81 C 46.21 37.01 47.49 37.41 48.13 37.61 Z" />
<path fill="#000" opacity="1.00" d=" M 151.56 60.77 C 151.69 61.43 151.96 62.75 152.09 63.41 C 152.74 63.45 154.06 63.55 154.72 63.59 C 154.78 64.04 154.91 64.94 154.97 65.39 C 154.99 65.69 155.02 66.27 155.04 66.56 C 154.93 67.12 154.73 68.22 154.62 68.77 C 153.03 68.56 150.94 69.31 149.72 68.07 C 149.42 65.49 150.83 63.15 151.56 60.77 Z" />
<path fill="#000" opacity="1.00" d=" M 511.13 63.66 C 512.67 63.61 514.23 63.63 515.79 63.65 C 516.17 65.44 517.68 66.14 519.34 66.30 C 516.80 67.60 514.24 68.99 511.31 68.92 C 511.26 68.34 511.16 67.19 511.12 66.61 C 511.11 66.32 511.10 65.74 511.09 65.45 L 511.13 63.66 Z" />
<path fill="#000" opacity="1.00" d=" M 530.02 73.71 C 533.03 76.79 533.91 81.02 534.56 85.12 C 535.37 82.50 535.78 79.73 534.68 77.13 C 535.76 76.33 538.20 76.09 538.08 78.10 C 536.06 80.97 535.18 84.48 534.97 87.94 C 535.33 88.12 536.05 88.48 536.41 88.66 C 536.41 90.31 536.44 91.96 536.52 93.61 C 535.85 93.60 534.50 93.57 533.82 93.55 L 532.94 94.03 C 532.52 93.72 531.68 93.10 531.26 92.79 C 531.27 91.36 531.28 89.93 531.30 88.50 C 531.98 88.33 533.32 87.98 534.00 87.81 C 533.82 82.84 531.98 78.20 530.02 73.71 Z" />
<path fill="#000" opacity="1.00" d=" M 154.83 90.99 C 156.43 90.99 158.03 91.00 159.63 91.02 C 159.63 92.71 160.41 93.47 161.97 93.32 C 188.34 93.66 214.72 93.26 241.09 93.40 C 327.06 93.44 413.05 93.37 499.02 93.44 C 500.89 93.57 502.75 93.20 503.28 91.11 C 504.80 91.08 506.33 91.06 507.87 91.05 C 507.85 92.66 507.84 94.27 507.84 95.89 C 507.16 95.99 505.82 96.20 505.14 96.31 C 493.94 148.98 483.13 201.73 472.17 254.45 C 474.34 255.34 473.74 257.84 473.55 259.68 C 472.32 260.77 470.36 259.95 468.87 260.19 C 468.78 259.59 468.61 258.39 468.53 257.79 L 468.44 257.03 C 468.32 254.96 471.38 255.17 471.50 253.19 C 473.20 245.48 474.71 237.73 476.35 230.02 C 480.08 212.02 483.87 194.03 487.62 176.03 C 489.58 166.69 491.50 157.34 493.47 148.00 C 495.29 139.35 497.04 130.70 498.91 122.07 C 500.45 114.43 502.08 106.81 503.67 99.18 C 504.26 97.34 503.32 95.63 502.62 93.99 C 493.10 93.02 483.54 94.07 474.01 93.61 C 370.67 93.74 267.33 93.54 163.99 93.72 C 161.40 93.18 159.69 94.81 158.44 96.83 C 160.14 105.01 161.55 113.26 163.12 121.47 C 164.81 130.43 166.50 139.39 168.18 148.35 C 171.62 166.54 174.95 184.74 178.42 202.92 C 180.11 211.92 181.80 220.93 183.49 229.93 C 185.02 238.24 186.70 246.53 188.07 254.87 C 188.75 254.96 190.11 255.14 190.79 255.23 C 190.81 255.73 190.85 256.75 190.87 257.26 L 190.88 257.68 C 190.89 258.25 190.92 259.39 190.93 259.96 C 189.24 260.13 187.54 260.23 185.84 260.26 C 185.78 258.85 185.71 257.46 185.65 256.06 C 186.07 255.56 186.90 254.56 187.32 254.06 C 185.80 247.90 184.83 241.62 183.65 235.39 C 175.78 193.27 167.88 151.16 160.03 109.04 C 159.17 104.97 158.89 100.69 157.37 96.80 C 156.77 96.52 155.57 95.97 154.97 95.70 C 154.91 94.13 154.87 92.56 154.83 90.99 Z" />
<path fill="#000" opacity="1.00" d=" M 496.97 265.78 C 497.28 264.77 497.59 263.77 497.88 262.76 L 498.03 264.29 C 498.18 265.31 498.57 266.24 499.21 267.10 C 499.26 268.38 499.31 269.66 499.35 270.94 C 495.87 270.73 496.82 275.17 494.09 276.13 C 496.63 276.22 496.74 278.85 495.15 280.37 C 494.24 279.69 493.33 279.02 492.44 278.35 C 490.77 279.98 488.92 281.39 487.24 283.00 C 487.46 283.57 487.90 284.70 488.11 285.27 C 487.00 287.64 484.71 286.59 484.18 284.43 C 482.73 284.95 481.26 285.40 479.78 285.82 C 479.09 288.41 476.17 287.41 474.21 287.68 L 473.69 285.68 C 466.49 285.17 459.24 285.63 452.01 285.48 C 443.02 285.48 434.02 285.48 425.02 285.48 C 416.01 285.48 407.01 285.48 398.01 285.48 C 388.67 285.48 379.34 285.48 370.01 285.48 C 361.00 285.48 351.99 285.48 342.98 285.48 C 333.65 285.48 324.31 285.48 314.98 285.48 C 305.98 285.48 296.98 285.48 287.98 285.48 C 278.67 285.48 269.36 285.48 260.05 285.48 C 251.36 285.48 242.67 285.48 233.98 285.48 C 224.64 285.48 215.30 285.49 205.96 285.48 C 202.76 285.46 199.55 285.47 196.34 285.54 C 195.72 286.66 195.09 287.77 194.45 288.88 C 195.99 296.61 197.38 304.38 198.86 312.13 C 200.30 319.78 201.74 327.44 203.14 335.10 C 203.10 336.90 204.59 337.40 206.12 337.48 C 206.13 337.89 206.14 338.70 206.14 339.11 L 206.12 339.81 C 206.08 340.38 206.00 341.54 205.96 342.11 C 204.25 342.20 202.55 342.23 200.86 342.27 C 201.03 339.22 202.33 336.26 201.93 333.20 C 199.22 319.16 196.64 305.08 194.09 291.00 C 194.09 288.93 192.17 287.95 190.76 286.84 C 190.88 285.29 190.95 283.74 191.10 282.21 C 192.56 282.25 194.03 282.30 195.50 282.36 C 195.71 282.95 196.13 284.13 196.35 284.72 C 288.76 284.57 381.17 284.72 473.59 284.67 C 473.83 284.07 474.32 282.86 474.57 282.26 C 476.71 282.22 478.83 282.59 480.42 284.18 C 486.76 283.15 492.02 278.68 494.78 272.98 C 494.49 270.77 494.28 268.55 494.10 266.34 C 494.82 266.20 496.26 265.92 496.97 265.78 Z" />
<path fill="#000" opacity="1.00" d=" M 454.20 337.17 C 455.81 337.17 457.42 337.17 459.05 337.17 C 459.17 337.62 459.41 338.50 459.54 338.94 C 460.89 339.29 462.26 339.61 463.52 340.27 C 461.81 340.55 460.31 341.32 459.05 342.47 C 457.47 342.57 455.90 342.65 454.32 342.73 C 454.25 342.02 454.10 340.60 454.03 339.90 L 453.99 339.01 C 454.04 338.55 454.15 337.63 454.20 337.17 Z" />
<path fill="#000" opacity="1.00" d=" M 470.89 345.36 C 472.45 346.11 473.95 345.23 475.40 344.66 C 475.58 347.31 475.77 349.97 476.33 352.57 C 477.04 352.62 478.46 352.72 479.16 352.77 C 479.21 354.29 479.28 355.80 479.36 357.32 C 477.55 357.58 475.74 357.81 473.94 358.05 C 474.13 355.86 474.61 353.69 474.49 351.49 C 473.51 349.33 472.15 347.36 470.89 345.36 Z" />
<path fill="#000" opacity="1.00" d=" M 203.71 368.38 C 202.09 367.56 203.33 365.71 204.52 365.22 C 207.66 368.44 212.42 367.09 216.39 366.92 C 217.02 365.01 218.89 363.90 220.79 364.89 C 225.05 367.39 230.25 366.66 234.85 365.63 C 236.47 365.66 236.15 367.76 235.90 368.83 C 234.13 368.34 232.32 367.94 230.49 367.81 C 231.64 369.62 233.80 370.43 234.98 372.24 C 234.58 372.00 233.77 371.53 233.36 371.29 C 230.11 369.41 226.46 368.40 222.81 367.65 C 222.50 368.18 221.90 369.23 221.59 369.76 C 220.25 369.74 218.91 369.73 217.57 369.72 C 217.30 369.29 216.78 368.44 216.51 368.01 C 213.03 367.90 209.76 369.41 206.63 370.76 C 207.49 369.76 208.35 368.76 209.21 367.75 C 207.36 367.76 205.53 368.53 203.71 368.38 Z" />
<path fill="#000" opacity="1.00" d=" M 264.74 364.58 C 267.78 364.29 270.01 366.81 272.94 366.86 C 311.21 366.85 349.48 366.89 387.76 366.83 C 389.12 365.28 390.86 364.09 393.03 364.68 C 393.93 366.02 393.58 367.78 393.82 369.32 C 392.62 369.60 391.44 369.92 390.28 370.30 C 386.34 376.60 385.01 384.06 384.53 391.36 C 387.13 392.96 386.82 396.35 384.34 397.89 C 384.69 404.19 386.83 410.16 387.93 416.32 C 386.44 413.17 385.46 409.82 384.46 406.50 C 383.71 411.66 383.94 416.88 383.85 422.08 C 384.45 423.04 385.05 424.01 385.67 424.98 C 385.10 425.57 384.55 426.17 383.99 426.77 C 383.31 426.20 382.63 425.62 381.96 425.06 C 382.41 424.08 382.83 423.09 383.25 422.10 C 383.25 414.73 383.56 407.36 383.26 400.00 C 383.45 398.39 382.71 397.11 381.32 396.38 C 381.29 396.03 381.22 395.34 381.19 394.99 C 381.18 394.37 381.16 393.14 381.16 392.53 C 384.75 391.36 383.02 386.90 382.14 384.33 C 385.31 382.62 386.78 378.15 384.61 375.12 C 387.19 373.45 388.87 370.82 388.72 367.68 C 382.49 367.66 376.26 367.67 370.03 367.67 C 361.00 367.67 351.96 367.67 342.93 367.67 C 333.61 367.67 324.30 367.67 314.98 367.67 C 305.99 367.67 297.01 367.67 288.02 367.67 C 281.79 367.68 275.56 367.65 269.33 367.69 C 269.23 370.96 271.02 373.67 273.80 375.25 C 273.22 375.92 272.65 376.60 272.09 377.28 C 272.71 379.95 273.11 383.01 275.93 384.30 C 275.13 386.87 273.20 391.49 276.92 392.48 C 276.92 393.09 276.90 394.32 276.89 394.94 C 276.86 395.30 276.80 396.03 276.77 396.40 C 275.28 397.06 274.61 398.37 274.80 399.98 C 274.58 407.34 274.81 414.71 274.91 422.08 C 275.26 423.07 275.64 424.06 276.04 425.05 C 275.43 425.63 274.84 426.21 274.24 426.79 C 273.62 426.13 273.00 425.48 272.38 424.83 C 273.00 423.94 273.62 423.05 274.24 422.17 C 274.04 417.03 274.27 411.87 273.85 406.74 C 271.67 412.00 270.38 417.67 267.00 422.36 C 269.82 414.50 273.54 406.76 273.62 398.23 C 271.49 396.17 270.94 393.06 273.58 391.13 C 273.03 384.35 271.72 377.54 268.68 371.40 C 267.81 369.94 265.93 369.71 264.54 368.97 C 264.60 367.50 264.67 366.04 264.74 364.58 Z" />
<path fill="#000" opacity="1.00" d=" M 422.98 365.26 C 427.35 366.86 433.14 367.62 437.10 364.71 C 437.82 364.69 439.27 364.64 439.99 364.62 C 440.52 365.06 441.58 365.94 442.11 366.37 C 446.00 366.54 449.95 366.80 453.71 365.57 C 455.67 365.86 455.03 367.77 454.12 368.81 C 452.34 368.12 450.48 367.61 448.57 367.85 C 450.19 369.16 452.25 370.06 453.39 371.91 L 452.33 371.33 C 448.96 369.75 445.29 367.64 441.50 368.18 C 441.21 368.59 440.63 369.41 440.34 369.82 C 438.29 369.96 436.36 369.55 434.86 368.08 C 431.23 367.98 427.86 369.75 424.67 371.27 L 423.71 371.78 C 425.00 370.19 426.75 369.10 428.30 367.79 C 426.37 367.82 424.50 368.34 422.59 368.50 C 421.17 367.48 422.21 366.26 422.98 365.26 Z" />
<path fill="#000" opacity="1.00" d=" M 191.70 381.45 C 191.38 380.41 189.72 377.49 192.17 377.98 C 196.09 377.81 190.10 384.94 194.72 384.12 C 193.88 386.48 192.95 388.92 193.02 391.47 C 193.48 391.73 194.40 392.26 194.86 392.52 C 194.85 393.14 194.83 394.37 194.82 394.98 C 194.79 395.32 194.72 396.00 194.68 396.34 C 191.63 397.74 193.76 401.23 194.15 403.57 C 191.86 405.58 193.35 408.45 193.85 410.89 C 193.16 410.90 191.78 410.92 191.10 410.93 C 190.42 409.52 191.71 408.20 191.92 406.84 C 192.60 403.80 192.08 400.64 192.01 397.57 C 189.17 397.18 189.47 394.38 189.93 392.28 C 190.40 392.07 191.35 391.63 191.82 391.42 C 192.31 388.16 192.69 384.64 191.70 381.45 Z" />
<path fill="#000" opacity="1.00" d=" M 245.16 378.30 C 245.93 378.21 247.49 378.03 248.26 377.94 C 248.24 381.62 247.06 385.23 247.58 388.96 C 247.24 390.65 248.47 391.68 249.66 392.64 C 249.64 393.85 249.62 395.07 249.59 396.30 C 249.13 396.73 248.22 397.59 247.76 398.02 C 247.27 401.97 247.41 406.01 248.54 409.85 C 248.30 411.66 246.42 410.71 245.22 410.77 C 245.85 408.78 246.33 406.73 246.16 404.64 C 244.87 406.22 243.96 408.18 242.21 409.33 C 243.95 406.09 245.69 402.72 246.07 399.01 C 246.07 397.40 244.60 396.31 243.97 394.94 C 244.12 392.69 246.80 391.25 245.92 388.88 C 245.33 385.56 243.76 382.53 242.16 379.60 C 243.94 380.71 244.81 382.70 246.10 384.28 C 246.42 382.21 245.87 380.21 245.16 378.30 Z" />
<path fill="#000" opacity="1.00" d=" M 409.62 379.63 C 408.76 377.95 411.99 376.95 412.38 378.75 C 412.52 380.60 411.70 382.44 411.95 384.33 C 413.30 382.82 413.95 380.66 415.83 379.69 C 413.90 383.31 411.84 387.22 412.04 391.45 C 412.47 391.73 413.31 392.31 413.73 392.59 C 413.72 393.19 413.71 394.37 413.71 394.96 C 413.66 395.29 413.57 395.94 413.52 396.27 C 412.37 397.23 411.50 398.45 412.14 399.99 C 412.75 403.31 414.21 406.40 415.84 409.33 C 414.11 408.16 413.13 406.27 411.90 404.65 C 411.55 406.49 412.09 408.28 412.76 409.98 C 412.31 410.34 411.41 411.06 410.97 411.42 C 410.56 411.04 409.75 410.28 409.34 409.90 C 411.01 406.18 410.41 402.06 410.40 398.12 C 409.95 397.59 409.03 396.53 408.58 396.00 C 408.29 393.95 408.80 392.19 410.80 391.30 C 411.38 387.40 412.11 383.05 409.62 379.63 Z" />
<path fill="#000" opacity="1.00" d=" M 465.03 384.41 C 466.10 382.34 462.77 378.40 465.93 377.86 C 467.97 377.73 467.29 380.10 467.01 381.21 C 466.41 385.15 465.61 389.76 468.19 393.19 C 469.40 395.70 466.29 397.49 466.56 399.97 C 466.45 403.34 466.23 406.85 467.66 410.01 C 467.21 410.31 466.31 410.93 465.86 411.23 C 463.00 410.25 465.84 406.78 465.07 404.70 C 463.77 406.23 462.86 408.14 461.17 409.31 C 462.99 405.84 464.87 402.16 464.96 398.16 C 464.57 397.70 463.80 396.78 463.42 396.32 C 463.37 396.00 463.29 395.36 463.24 395.04 C 463.24 394.43 463.23 393.23 463.22 392.62 C 463.63 392.34 464.43 391.77 464.84 391.49 C 465.28 387.31 463.01 383.34 461.18 379.72 C 462.99 380.77 463.78 382.81 465.03 384.41 Z" />
<path fill="#000" opacity="1.00" d=" M 491.44 380.41 C 491.96 380.49 492.98 380.64 493.49 380.72 C 493.77 384.28 493.30 387.93 494.08 391.45 C 494.51 391.73 495.36 392.27 495.79 392.55 C 495.79 393.15 495.78 394.37 495.78 394.98 C 495.74 395.31 495.67 395.97 495.63 396.30 C 493.17 397.71 493.74 400.65 493.59 403.04 C 493.59 409.39 493.48 415.75 493.73 422.10 C 494.13 423.08 494.55 424.05 494.99 425.03 C 494.26 425.66 493.54 426.30 492.82 426.94 C 491.07 425.36 491.87 423.52 493.13 421.94 C 492.58 416.44 493.47 410.80 492.04 405.41 C 491.79 402.14 493.56 398.46 490.97 395.74 C 489.70 394.03 491.28 392.32 492.54 391.25 C 492.07 387.65 491.67 384.03 491.44 380.41 Z" />
<path fill="#000" opacity="1.00" d=" M 233.38 417.64 C 234.28 417.09 235.16 416.52 236.03 415.93 C 235.26 418.87 231.46 418.92 229.72 421.14 C 231.78 421.29 233.76 420.69 235.76 420.29 C 236.48 421.60 235.75 422.75 234.98 423.82 C 230.99 420.76 224.53 420.56 220.87 424.24 C 218.92 424.93 217.10 424.04 216.34 422.16 C 212.61 421.76 208.40 420.83 205.09 423.19 C 203.67 424.69 201.79 421.20 203.64 420.63 C 205.54 420.48 207.43 421.23 209.35 421.20 C 207.82 419.41 205.10 418.93 204.11 416.69 C 204.51 416.92 205.30 417.38 205.70 417.62 C 209.04 419.37 212.66 421.08 216.53 420.99 C 216.79 420.55 217.31 419.68 217.57 419.24 C 218.84 419.26 220.10 419.29 221.37 419.34 C 221.78 419.78 222.61 420.64 223.03 421.08 C 226.71 420.88 230.21 419.45 233.38 417.64 Z" />
<path fill="#000" opacity="1.00" d=" M 423.83 417.60 L 424.61 417.62 C 427.88 419.27 431.27 420.85 434.97 421.23 C 435.38 420.75 436.22 419.79 436.63 419.31 C 437.88 419.28 439.14 419.27 440.40 419.26 C 440.68 419.68 441.24 420.51 441.52 420.93 C 445.37 421.21 448.92 419.29 452.30 417.71 L 453.30 417.18 C 452.13 418.92 450.12 419.76 448.61 421.16 C 450.56 421.37 452.43 420.66 454.35 420.55 C 455.60 421.57 454.81 422.70 454.01 423.69 C 450.30 421.88 446.11 422.67 442.15 422.64 C 440.74 423.79 439.04 424.92 437.13 424.26 C 433.61 420.79 427.23 420.61 423.45 423.72 C 422.21 423.31 421.03 421.42 422.63 420.64 C 424.52 420.41 426.43 421.24 428.36 421.03 C 426.81 419.94 425.23 418.88 423.83 417.60 Z" />
<path fill="#000" opacity="1.00" d=" M 223.32 448.66 C 230.98 448.14 238.15 445.57 245.28 442.96 C 241.42 446.06 236.36 446.91 231.79 448.49 C 236.02 449.88 240.60 448.95 244.97 449.17 C 246.95 449.42 248.61 448.30 250.17 447.27 C 250.62 448.06 252.24 449.08 251.16 450.03 C 249.84 451.90 247.75 449.24 246.00 449.72 C 238.14 450.15 230.26 449.14 222.43 449.85 C 222.27 450.33 221.94 451.29 221.77 451.77 C 220.27 451.79 218.78 451.82 217.28 451.85 C 217.17 451.33 216.93 450.28 216.81 449.76 C 209.22 449.24 201.62 450.09 194.02 449.73 C 191.55 449.18 189.02 452.13 187.29 449.37 C 187.95 448.68 188.61 448.00 189.29 447.35 C 190.70 448.30 192.14 449.47 193.98 449.17 C 198.86 449.03 203.97 449.94 208.61 448.01 C 210.98 448.02 213.36 448.58 215.73 448.37 C 217.39 447.56 219.06 446.72 220.89 446.36 C 221.70 447.13 222.51 447.90 223.32 448.66 Z" />
<path fill="#000" opacity="1.00" d=" M 441.89 448.60 C 448.92 448.20 455.60 445.98 462.26 443.90 C 458.89 446.60 454.38 446.92 450.60 448.81 C 455.74 449.49 460.94 449.07 466.12 449.20 C 467.03 448.54 467.95 447.90 468.87 447.26 C 469.47 447.98 471.15 448.86 470.10 449.96 C 468.85 451.96 466.78 449.35 465.06 449.77 C 457.13 450.01 449.19 449.29 441.27 449.76 C 441.14 450.27 440.87 451.30 440.74 451.82 C 439.25 451.80 437.77 451.80 436.29 451.82 C 436.13 451.31 435.83 450.31 435.68 449.81 C 429.11 449.19 422.52 449.97 415.95 449.76 C 413.54 449.75 411.00 449.33 408.80 450.55 C 407.73 451.38 406.53 449.98 406.49 448.97 C 406.91 448.29 407.61 447.87 408.19 447.35 C 409.40 448.02 410.52 449.22 412.03 449.10 C 417.18 449.04 422.56 449.92 427.49 447.98 C 430.02 447.99 432.55 448.26 435.07 448.57 C 436.82 446.14 440.19 446.06 441.89 448.60 Z" />
</g>
<g id="#0101010d">
<path fill="#010101" opacity="0.05" d=" M 14.19 11.19 C 23.42 11.02 32.67 10.99 41.90 11.21 C 41.84 11.91 41.74 13.33 41.68 14.03 C 39.68 15.41 40.36 17.15 41.62 18.80 C 40.99 18.90 39.74 19.12 39.11 19.22 C 39.17 20.95 39.22 22.68 39.27 24.41 C 39.88 24.36 41.09 24.26 41.70 24.21 L 41.89 25.89 C 41.20 25.95 39.84 26.06 39.15 26.11 C 39.16 27.65 39.17 29.19 39.17 30.72 C 39.82 30.98 41.13 31.50 41.78 31.76 C 41.31 32.33 40.37 33.49 39.90 34.07 C 40.21 34.57 40.82 35.56 41.13 36.05 C 42.00 35.74 42.87 35.44 43.74 35.13 C 44.33 35.71 44.94 36.27 45.57 36.81 C 45.38 37.39 44.99 38.53 44.80 39.10 C 45.31 41.50 47.76 39.51 49.19 39.27 C 49.33 39.81 49.59 40.88 49.73 41.41 C 51.22 41.41 52.71 41.41 54.21 41.40 C 54.37 40.93 54.70 39.99 54.87 39.52 C 59.50 40.39 64.21 40.15 68.90 40.14 C 69.23 48.71 68.88 57.29 69.12 65.86 C 78.06 66.08 87.02 66.12 95.97 65.93 C 96.26 57.36 95.91 48.78 96.20 40.21 C 103.94 40.53 112.17 38.58 119.38 42.21 C 121.01 49.97 122.33 57.79 123.84 65.58 C 115.04 66.74 106.12 65.39 97.32 66.33 C 97.07 66.56 96.55 67.00 96.29 67.23 C 95.63 72.13 96.26 77.10 96.12 82.03 C 96.22 85.81 95.68 89.67 96.58 93.39 C 101.60 94.61 106.84 93.65 111.96 93.90 C 115.74 93.73 119.72 94.54 123.37 93.34 C 124.90 85.57 123.17 77.43 124.51 69.57 C 126.18 77.66 127.59 85.80 129.15 93.92 C 127.47 93.99 125.79 94.05 124.11 94.13 C 123.81 103.03 123.97 111.94 124.06 120.85 C 127.45 120.97 130.84 121.04 134.23 121.03 C 135.93 130.05 137.61 139.08 139.31 148.10 C 134.63 148.13 129.91 147.61 125.26 148.29 C 123.04 150.08 124.27 153.48 123.93 155.97 C 124.41 162.40 123.07 169.06 124.63 175.36 C 131.10 176.73 137.93 175.48 144.54 176.03 C 146.23 185.04 147.93 194.05 149.61 203.06 C 141.07 202.86 132.53 203.04 123.99 203.04 C 123.95 194.70 124.05 186.36 123.93 178.03 C 124.08 176.64 123.53 175.09 121.87 175.25 C 113.62 174.81 105.34 175.36 97.09 174.92 C 96.32 166.22 97.71 157.30 96.42 148.72 C 92.89 147.36 88.80 148.32 85.06 148.04 C 79.93 148.35 74.67 147.44 69.64 148.58 C 68.02 157.13 69.88 166.11 68.66 174.73 C 59.85 175.47 50.92 175.08 42.07 174.94 C 41.69 166.38 42.45 157.77 41.67 149.23 C 41.42 148.99 40.93 148.52 40.68 148.28 C 31.87 147.61 22.98 148.45 14.15 147.84 C 14.04 138.94 13.91 130.02 14.23 121.12 C 22.48 120.73 30.74 121.15 38.99 120.95 C 40.67 121.11 42.31 119.88 41.95 118.07 C 41.97 110.09 42.14 102.10 41.81 94.13 C 32.62 93.60 23.40 94.22 14.19 93.79 C 14.06 84.58 13.97 75.36 14.19 66.15 C 22.76 65.73 31.37 66.30 39.95 65.92 C 42.35 65.61 41.89 62.72 42.00 60.98 C 41.86 53.68 42.04 46.38 41.86 39.09 C 32.64 38.78 23.41 39.18 14.19 38.84 C 14.01 29.63 14.05 20.41 14.19 11.19 M 42.16 66.18 C 41.80 73.81 42.02 81.46 41.92 89.10 C 41.99 90.80 41.65 93.66 44.04 93.80 C 49.69 94.15 55.35 93.75 61.01 93.93 C 63.46 93.88 66.01 94.25 68.37 93.43 C 69.80 89.46 68.73 85.11 69.04 80.98 C 68.81 76.20 69.74 71.23 68.39 66.60 C 66.39 65.67 64.11 65.99 61.98 65.94 C 55.37 66.19 48.76 65.78 42.16 66.18 M 69.15 94.06 C 68.98 102.35 68.97 110.67 69.14 118.96 C 69.04 121.10 71.60 120.89 73.06 121.01 C 80.67 120.96 88.28 121.05 95.89 120.94 C 96.25 112.00 96.10 103.03 95.94 94.09 C 87.02 93.74 78.08 93.86 69.15 94.06 M 42.16 121.16 C 41.82 130.04 41.93 138.93 42.04 147.82 C 50.98 148.20 59.94 148.03 68.89 147.90 C 69.14 138.97 69.10 130.02 68.91 121.09 C 60.00 120.94 51.07 120.84 42.16 121.16 M 96.60 121.62 C 95.49 125.63 96.33 129.89 96.08 134.01 C 96.32 138.45 95.43 143.06 96.60 147.40 C 98.95 148.36 101.57 147.97 104.04 148.06 C 110.66 147.92 117.27 148.20 123.88 147.89 C 124.06 140.27 124.02 132.64 123.95 125.02 C 123.87 123.60 123.98 121.17 121.98 121.13 C 116.00 120.65 109.99 121.19 103.99 120.94 C 101.54 121.03 98.91 120.57 96.60 121.62 Z" />
<path fill="#010101" opacity="0.05" d=" M 136.89 11.19 C 141.53 11.00 146.17 11.00 150.81 11.22 C 151.45 20.41 150.68 29.64 151.22 38.84 C 158.83 39.15 166.45 38.86 174.06 39.03 C 175.78 38.93 178.69 39.48 178.84 36.98 C 179.29 28.41 178.50 19.79 179.12 11.21 C 188.01 10.86 196.92 11.16 205.82 11.17 C 206.40 19.76 205.56 28.38 206.11 36.96 C 206.34 39.36 209.23 38.98 210.95 39.03 C 218.24 38.81 225.54 39.15 232.83 38.90 C 233.47 29.66 232.64 20.39 233.20 11.14 C 242.42 11.07 251.63 10.99 260.84 11.19 C 261.11 20.40 260.70 29.62 261.07 38.83 C 270.03 39.24 279.00 38.80 287.96 39.02 C 288.06 47.86 287.91 56.69 288.02 65.53 C 279.01 65.53 270.00 65.53 261.00 65.52 C 260.89 58.37 260.92 51.21 260.95 44.05 C 260.74 42.43 261.31 40.28 259.71 39.22 C 255.51 38.62 251.26 39.06 247.04 38.99 C 242.78 39.10 238.49 38.61 234.26 39.22 C 232.72 40.29 233.19 42.34 233.01 43.93 C 233.01 51.13 233.12 58.33 233.02 65.52 C 224.02 65.53 215.03 65.52 206.04 65.53 C 205.94 56.73 206.09 47.93 205.88 39.14 C 196.95 38.79 188.00 39.00 179.06 39.12 C 178.77 47.92 179.04 56.73 178.90 65.53 C 170.92 65.43 162.94 65.72 154.97 65.39 C 154.91 64.94 154.78 64.04 154.72 63.59 C 154.06 63.55 152.74 63.45 152.09 63.41 C 151.96 62.75 151.69 61.43 151.56 60.77 C 151.49 60.38 151.34 59.59 151.27 59.20 C 149.97 50.36 148.02 41.62 146.54 32.81 C 147.22 30.46 148.08 28.12 147.82 25.59 C 147.10 25.57 145.68 25.52 144.97 25.50 C 144.47 22.90 144.14 20.22 145.06 17.65 C 143.64 16.64 142.20 17.24 141.12 18.45 C 139.37 16.59 137.35 14.99 135.14 13.70 C 135.72 12.87 136.31 12.03 136.89 11.19 Z" />
<path fill="#010101" opacity="0.05" d=" M 288.19 11.14 C 297.10 11.14 306.02 11.04 314.93 11.17 C 315.38 19.75 314.77 28.35 315.15 36.93 C 315.18 39.46 318.34 38.86 320.02 39.02 C 327.52 38.77 335.05 39.43 342.53 38.61 C 343.57 29.50 342.55 20.30 343.09 11.15 C 352.01 11.03 360.93 10.99 369.85 11.17 C 370.20 19.10 369.88 27.04 370.01 34.98 C 370.18 36.44 369.85 38.92 372.01 38.83 C 380.31 39.10 388.64 39.08 396.95 38.84 C 397.39 29.61 396.87 20.38 397.15 11.15 C 406.37 10.97 415.59 11.11 424.81 11.11 C 425.17 20.35 424.89 29.59 425.06 38.83 C 434.00 39.21 442.95 38.93 451.90 38.93 C 452.24 29.69 451.82 20.44 452.13 11.20 C 461.35 10.92 470.58 11.08 479.80 11.17 C 480.32 20.33 479.23 29.63 480.35 38.70 C 488.49 39.21 496.72 39.01 504.89 38.82 C 506.97 39.00 506.91 36.47 507.00 35.05 C 507.15 27.10 506.67 19.13 507.14 11.18 C 516.03 11.01 524.93 11.03 533.83 11.14 C 534.28 19.41 533.92 27.71 534.05 35.99 C 534.03 37.25 534.39 38.94 536.02 38.79 C 544.54 39.51 553.25 38.33 561.67 39.36 C 562.31 48.16 561.80 57.03 561.84 65.85 C 553.90 66.26 545.93 65.89 537.98 66.04 C 536.70 66.20 534.98 65.80 534.36 67.27 C 533.72 70.51 533.71 73.96 534.68 77.13 C 535.78 79.73 535.37 82.50 534.56 85.12 C 533.91 81.02 533.03 76.79 530.02 73.71 C 527.94 70.60 524.37 69.12 521.78 66.55 C 523.70 66.32 525.48 67.05 527.17 67.84 C 527.67 67.26 528.17 66.68 528.67 66.10 C 530.41 66.03 532.16 65.94 533.92 65.86 C 533.97 56.95 534.33 48.02 533.87 39.11 C 524.94 38.83 516.00 38.89 507.07 39.13 C 506.85 47.93 507.04 56.72 507.01 65.52 C 498.01 65.55 489.00 65.51 479.99 65.53 C 479.73 57.40 480.20 49.25 479.76 41.13 C 479.74 38.62 476.72 39.04 475.01 38.92 C 467.47 39.14 459.90 38.56 452.39 39.33 C 451.54 48.04 452.22 56.80 452.05 65.53 C 443.02 65.53 433.98 65.53 424.95 65.53 C 425.00 58.35 424.93 51.17 424.99 44.00 C 424.77 42.42 425.35 40.31 423.79 39.27 C 419.23 38.54 414.60 39.05 410.01 38.96 C 406.09 39.05 402.13 38.56 398.24 39.23 C 396.72 40.29 397.22 42.34 397.03 43.92 C 397.03 51.12 397.13 58.32 397.06 65.53 C 388.04 65.53 379.02 65.52 370.01 65.53 C 369.99 56.73 370.18 47.92 369.86 39.12 C 360.94 38.90 352.00 38.86 343.08 39.13 C 342.89 47.93 342.94 56.73 342.97 65.53 C 333.65 65.52 324.33 65.53 315.01 65.53 C 314.96 56.71 315.23 47.88 314.90 39.07 C 305.92 38.83 296.94 38.99 287.96 39.02 C 288.08 29.73 287.80 20.43 288.19 11.14 Z" />
<path fill="#010101" opacity="0.05" d=" M 158.44 96.83 C 159.69 94.81 161.40 93.18 163.99 93.72 C 267.33 93.54 370.67 93.74 474.01 93.61 C 483.54 94.07 493.10 93.02 502.62 93.99 C 503.32 95.63 504.26 97.34 503.67 99.18 C 502.08 106.81 500.45 114.43 498.91 122.07 C 492.89 119.87 486.34 121.27 480.08 121.11 C 479.78 130.04 479.86 138.97 480.02 147.90 C 484.50 148.10 488.98 148.07 493.47 148.00 C 491.50 157.34 489.58 166.69 487.62 176.03 C 485.15 175.97 482.65 175.67 480.22 176.23 C 479.39 185.06 480.27 193.98 479.76 202.84 C 470.51 203.10 461.26 203.03 452.01 202.97 C 451.99 194.02 452.16 185.07 451.87 176.13 C 442.96 175.79 434.04 175.82 425.13 176.11 C 424.70 185.02 425.00 193.96 425.03 202.88 C 434.02 203.10 443.02 202.97 452.01 202.97 C 452.06 211.94 451.86 220.92 452.14 229.90 C 460.21 230.25 468.28 229.98 476.35 230.02 C 474.71 237.73 473.20 245.48 471.50 253.19 C 471.38 255.17 468.32 254.96 468.44 257.03 C 462.96 256.99 457.48 256.91 452.02 257.31 C 451.90 248.90 452.35 240.47 451.86 232.07 C 451.92 229.98 449.38 230.15 447.97 230.05 C 441.63 230.03 435.30 230.00 428.97 230.03 C 427.55 230.08 425.07 230.05 425.11 232.06 C 424.68 240.41 425.06 248.79 424.98 257.16 C 415.66 257.00 406.34 256.85 397.02 257.16 C 397.03 248.47 397.32 239.76 396.91 231.08 C 387.98 230.77 379.03 230.77 370.10 231.07 C 369.90 239.78 370.01 248.51 370.04 257.23 C 360.71 256.81 351.37 256.97 342.04 257.19 C 342.11 248.46 342.32 239.73 341.92 231.01 C 333.31 230.76 324.69 230.79 316.08 231.01 C 315.70 239.76 315.93 248.54 315.97 257.30 C 306.65 256.99 297.31 256.80 287.99 257.31 C 287.96 248.56 288.05 239.81 287.93 231.07 C 278.99 230.79 270.02 230.72 261.08 231.07 C 260.68 239.79 261.12 248.53 260.95 257.27 C 251.63 256.78 242.29 257.00 232.97 257.24 C 233.02 248.52 233.24 239.80 232.88 231.09 C 223.95 230.66 215.01 230.87 206.08 231.02 C 205.89 239.77 206.00 248.53 206.00 257.28 C 200.96 256.86 195.91 257.00 190.87 257.26 C 190.85 256.75 190.81 255.73 190.79 255.23 C 190.11 255.14 188.75 254.96 188.07 254.87 C 186.70 246.53 185.02 238.24 183.49 229.93 C 190.96 230.09 198.44 230.27 205.91 229.87 C 206.00 221.60 206.14 213.31 205.88 205.05 C 205.97 203.04 203.45 203.13 202.08 203.02 C 194.19 202.91 186.30 203.10 178.42 202.92 C 174.95 184.74 171.62 166.54 168.18 148.35 C 171.35 148.14 174.56 148.22 177.72 147.71 C 179.51 146.49 178.66 143.90 178.95 142.07 C 178.65 135.50 179.47 128.88 178.62 122.35 C 178.42 122.09 178.00 121.55 177.80 121.29 C 172.94 120.46 167.99 121.04 163.12 121.47 C 161.55 113.26 160.14 105.01 158.44 96.83 M 179.06 95.05 C 178.88 103.63 178.81 112.22 179.07 120.80 C 186.05 121.14 193.04 120.91 200.03 121.02 C 201.80 120.93 203.72 121.24 205.37 120.39 C 206.20 119.11 205.87 117.46 206.02 116.01 C 205.90 109.05 206.12 102.09 205.86 95.14 C 196.93 94.81 187.98 94.81 179.06 95.05 M 234.09 95.09 C 233.70 103.65 233.83 112.25 234.02 120.82 C 242.65 121.00 251.29 121.11 259.91 120.86 C 260.27 112.90 260.08 104.93 260.08 96.97 C 260.50 94.48 257.55 94.94 256.01 94.89 C 248.70 95.09 241.39 94.75 234.09 95.09 M 288.20 95.15 C 287.85 103.07 287.84 111.03 288.09 118.95 C 288.12 120.94 290.46 121.10 291.95 121.04 C 299.61 120.89 307.28 121.11 314.95 120.92 C 315.06 112.30 315.27 103.67 314.88 95.06 C 305.99 95.00 297.08 94.67 288.20 95.15 M 343.11 95.09 C 342.92 103.66 342.77 112.26 343.11 120.83 C 349.40 121.17 355.70 120.89 362.00 121.04 C 364.46 120.93 367.07 121.30 369.43 120.44 C 370.20 118.39 369.96 116.14 370.03 114.00 C 369.91 107.69 370.16 101.38 369.86 95.08 C 360.95 94.81 352.02 94.85 343.11 95.09 M 398.08 95.18 C 397.66 103.72 397.80 112.29 398.12 120.84 C 406.95 120.95 415.82 121.36 424.63 120.59 C 425.33 112.13 424.94 103.61 424.79 95.14 C 415.90 94.87 406.97 94.74 398.08 95.18 M 452.12 95.09 C 451.94 102.40 452.05 109.70 452.01 117.01 C 452.01 118.48 451.97 120.80 454.00 120.90 C 460.96 121.22 467.96 120.89 474.94 121.05 C 476.64 120.88 479.65 121.49 479.80 118.99 C 480.10 111.06 479.92 103.09 479.80 95.15 C 470.58 94.87 461.34 94.76 452.12 95.09 M 206.10 121.16 C 205.92 130.06 205.88 138.98 206.13 147.89 C 215.04 148.19 223.96 148.08 232.87 147.94 C 233.08 139.00 233.22 130.05 232.91 121.11 C 223.98 120.90 215.03 120.87 206.10 121.16 M 261.14 121.07 C 260.76 130.01 260.87 138.97 261.03 147.91 C 270.02 148.19 279.02 147.97 288.02 148.05 C 287.88 139.07 288.22 130.08 287.88 121.10 C 278.97 120.90 270.05 120.93 261.14 121.07 M 316.31 121.33 C 314.80 121.75 315.30 123.76 315.08 124.93 C 315.01 131.28 315.09 137.63 315.06 143.99 C 315.05 145.50 314.96 147.80 317.03 147.92 C 324.32 148.25 331.62 147.89 338.92 148.03 C 340.42 148.09 342.79 148.04 342.79 145.98 C 343.17 138.99 342.85 131.97 342.98 124.97 C 343.16 123.04 342.43 120.53 340.00 120.95 C 332.11 121.30 324.14 120.42 316.31 121.33 M 370.12 121.15 C 369.97 130.06 369.99 138.99 370.16 147.90 C 378.44 148.17 386.75 148.08 395.04 147.99 C 397.52 148.40 397.13 145.52 397.16 143.96 C 396.96 136.37 397.25 128.77 396.95 121.18 C 388.02 120.78 379.05 120.91 370.12 121.15 M 425.11 121.14 C 424.76 130.06 424.95 138.99 425.10 147.91 C 434.01 148.10 442.93 148.16 451.84 147.91 C 452.13 139.00 452.17 130.07 451.86 121.15 C 442.95 120.79 434.02 120.95 425.11 121.14 M 179.04 148.17 C 178.70 156.45 178.99 164.74 178.95 173.02 C 178.54 174.97 180.58 175.34 182.02 175.15 C 189.97 175.00 197.93 175.32 205.88 174.96 C 206.00 166.66 206.14 158.33 205.85 150.03 C 205.77 148.00 203.48 147.99 201.98 148.01 C 194.34 148.08 186.68 147.89 179.04 148.17 M 233.88 149.99 C 233.91 158.28 233.72 166.58 234.03 174.87 C 242.63 175.28 251.26 175.24 259.86 174.94 C 260.21 166.02 260.24 157.08 259.91 148.17 C 252.62 147.82 245.32 148.22 238.03 147.96 C 236.53 148.03 233.52 147.56 233.88 149.99 M 288.02 148.05 C 288.06 157.02 287.85 165.99 288.14 174.95 C 297.06 175.20 306.00 175.18 314.92 174.99 C 315.13 166.06 315.24 157.10 314.88 148.17 C 305.93 147.91 296.97 148.09 288.02 148.05 M 343.18 148.11 C 342.76 156.74 342.98 165.38 342.99 174.01 C 343.26 174.24 343.81 174.71 344.08 174.94 C 352.65 175.29 361.27 175.22 369.85 174.92 C 370.15 166.64 370.13 158.33 369.89 150.05 C 369.78 147.50 366.60 148.20 364.91 148.00 C 357.66 148.16 350.42 147.90 343.18 148.11 M 398.11 148.13 C 397.77 157.06 397.76 166.01 398.10 174.94 C 407.00 175.05 415.93 175.45 424.83 174.88 C 425.18 166.93 424.87 158.97 424.93 151.02 C 425.21 149.23 423.83 147.84 422.05 148.10 C 414.07 147.96 406.09 148.04 398.11 148.13 M 453.29 148.39 C 451.74 148.93 452.21 150.73 452.06 151.98 C 452.12 159.64 451.85 167.30 452.11 174.95 C 461.35 175.19 470.61 175.24 479.85 174.90 C 479.97 167.25 479.93 159.59 479.92 151.93 C 479.77 150.67 480.16 148.95 478.70 148.34 C 475.19 147.65 471.57 148.18 468.03 148.08 C 463.12 148.24 458.16 147.68 453.29 148.39 M 206.13 176.12 C 205.82 185.03 206.00 193.95 206.11 202.87 C 215.04 203.18 223.99 203.02 232.92 202.91 C 233.14 193.94 233.18 184.96 232.84 176.00 C 223.94 176.02 215.02 175.70 206.13 176.12 M 261.12 176.14 C 260.83 185.04 260.80 193.96 261.07 202.86 C 270.03 203.27 279.00 202.84 287.97 203.01 C 288.11 194.01 288.05 185.01 287.94 176.01 C 279.00 175.87 270.05 175.84 261.12 176.14 M 316.04 176.18 C 315.93 185.09 315.68 194.01 316.08 202.91 C 324.71 203.01 333.34 203.13 341.96 202.88 C 342.41 197.26 341.89 191.61 342.09 185.98 C 342.00 182.76 342.51 179.45 341.71 176.30 C 339.52 175.62 337.18 175.98 334.93 175.92 C 328.63 176.12 322.32 175.58 316.04 176.18 M 370.13 176.16 C 369.97 185.10 369.88 194.05 370.04 202.99 C 378.92 202.77 387.90 203.48 396.72 202.69 C 397.48 193.89 397.04 184.97 396.91 176.13 C 387.99 175.82 379.04 175.77 370.13 176.16 M 234.08 203.19 C 233.68 211.44 233.90 219.71 233.92 227.96 C 233.53 230.44 236.29 230.15 237.92 230.13 C 245.26 229.83 252.61 230.35 259.94 229.89 C 260.12 220.98 260.36 212.05 259.88 203.15 C 251.29 202.97 242.67 202.79 234.08 203.19 M 287.97 203.01 C 288.05 211.97 287.83 220.93 288.14 229.88 C 297.05 230.28 305.98 230.18 314.89 229.91 C 315.12 220.99 315.23 212.06 314.92 203.14 C 305.94 202.81 296.95 203.08 287.97 203.01 M 343.06 203.11 C 342.86 212.03 342.77 220.96 343.12 229.88 C 352.04 230.17 360.98 230.14 369.90 229.88 C 370.19 220.92 369.92 211.95 370.04 202.99 C 361.04 203.07 352.05 202.85 343.06 203.11 M 398.05 203.19 C 397.77 212.07 397.81 220.97 398.04 229.86 C 406.97 230.14 415.93 230.24 424.86 229.84 C 424.89 221.05 425.35 212.22 424.60 203.46 C 415.81 202.45 406.89 203.16 398.05 203.19 Z" />
<path fill="#010101" opacity="0.05" d=" M 533.82 93.55 C 534.50 93.57 535.85 93.60 536.52 93.61 C 544.95 94.43 553.44 93.44 561.87 94.16 C 561.85 103.05 562.12 111.95 561.79 120.84 C 552.59 121.30 543.37 120.72 534.17 121.09 C 533.93 128.40 534.11 135.72 534.02 143.03 C 534.15 144.75 533.53 147.69 536.04 147.90 C 544.64 148.34 553.27 147.75 561.87 148.16 C 561.92 157.37 562.10 166.60 561.79 175.81 C 552.58 176.24 543.36 175.67 534.16 176.10 C 533.79 185.06 534.18 194.03 534.01 202.99 C 526.37 203.01 518.73 203.02 511.09 202.96 C 512.96 193.97 514.83 184.97 516.72 175.98 C 522.06 175.73 527.44 176.32 532.75 175.60 C 534.67 174.51 533.81 171.87 534.11 170.05 C 533.86 162.75 534.27 155.44 533.91 148.14 C 530.12 148.03 526.34 147.95 522.56 147.93 C 526.32 129.80 530.10 111.68 533.82 93.55 Z" />
<path fill="#010101" opacity="0.05" d=" M 15.04 176.13 C 23.98 175.85 32.94 175.85 41.88 176.13 C 42.02 185.07 41.87 194.02 41.97 202.96 C 33.09 202.75 24.12 203.54 15.30 202.62 C 14.36 193.90 14.95 184.94 15.04 176.13 Z" />
<path fill="#010101" opacity="0.05" d=" M 69.10 176.08 C 78.04 175.93 87.01 175.73 95.95 176.13 C 96.22 183.09 95.98 190.06 96.14 197.02 C 96.08 198.90 96.35 200.86 95.71 202.67 C 86.85 203.47 77.90 202.79 69.01 202.98 C 69.08 194.01 68.95 185.05 69.10 176.08 Z" />
<path fill="#010101" opacity="0.05" d=" M 41.97 202.96 C 50.98 203.03 60.00 202.99 69.01 202.98 C 69.33 212.17 68.50 221.42 69.46 230.57 C 78.15 231.58 87.03 230.12 95.66 231.27 C 96.55 239.73 96.04 248.44 95.95 257.00 C 87.19 257.52 78.27 256.50 69.60 257.58 C 68.40 261.27 69.22 265.24 69.06 269.05 C 69.29 273.94 68.50 278.92 69.36 283.77 C 69.60 284.02 70.08 284.53 70.31 284.78 C 78.81 285.40 87.38 284.72 95.90 285.10 C 96.32 294.03 96.06 303.00 95.95 311.94 C 87.01 312.08 78.06 312.23 69.13 311.90 C 68.74 302.97 69.32 294.02 68.84 285.10 C 59.93 284.98 51.03 284.91 42.13 285.12 C 41.72 294.04 42.16 302.97 41.89 311.89 C 32.96 312.20 24.01 312.11 15.08 311.93 C 14.80 303.02 14.68 294.08 15.14 285.18 C 23.09 284.79 31.06 285.13 39.01 285.02 C 40.22 285.10 41.98 284.49 41.82 282.98 C 42.07 274.68 42.01 266.37 41.83 258.07 C 32.61 257.67 23.38 258.23 14.16 257.84 C 13.97 248.62 14.04 239.39 14.17 230.17 C 23.40 229.80 32.64 230.34 41.87 229.85 C 42.01 220.89 41.93 211.92 41.97 202.96 M 43.27 230.23 C 41.69 231.20 42.07 233.41 41.91 234.99 C 41.98 241.33 41.99 247.67 41.95 254.01 C 41.89 255.49 42.05 257.83 44.05 257.86 C 50.34 258.17 56.65 257.77 62.95 258.00 C 64.86 257.82 67.31 258.45 68.72 256.76 C 69.41 249.56 68.86 242.29 69.06 235.07 C 68.94 233.39 69.42 230.23 66.97 230.15 C 59.08 230.12 51.14 229.74 43.27 230.23 Z" />
<path fill="#010101" opacity="0.05" d=" M 97.09 203.09 C 106.05 202.95 115.02 203.04 123.99 203.04 C 123.95 212.01 124.15 220.98 123.87 229.94 C 114.94 230.11 105.99 230.22 97.07 229.90 C 96.85 220.97 96.71 212.02 97.09 203.09 Z" />
<path fill="#010101" opacity="0.05" d=" M 534.01 202.99 C 543.27 203.06 552.54 202.76 561.80 203.11 C 562.08 212.02 561.96 220.95 561.81 229.86 C 553.25 230.44 544.64 229.64 536.08 230.16 C 533.57 230.20 534.16 233.33 534.00 235.03 C 534.22 241.99 533.81 248.97 534.16 255.93 C 534.08 257.43 535.73 257.92 536.95 257.89 C 545.24 258.14 553.54 257.66 561.83 258.13 C 562.07 267.04 561.89 275.94 561.91 284.85 C 553.61 285.26 545.29 284.84 536.98 285.04 C 535.27 284.84 533.67 286.12 534.00 287.92 C 534.12 295.92 533.86 303.92 534.16 311.92 C 543.38 312.39 552.63 311.78 561.86 312.21 C 561.90 321.40 562.07 330.59 561.80 339.78 C 552.61 340.32 543.40 339.66 534.21 340.08 C 533.85 347.71 534.10 355.36 533.99 363.00 C 533.96 364.48 534.04 366.81 536.02 366.95 C 544.60 367.24 553.21 366.77 561.80 367.17 C 562.08 376.38 561.96 385.61 561.83 394.83 C 552.60 395.17 543.36 394.60 534.14 395.11 C 533.90 402.72 534.11 410.34 534.01 417.95 C 534.04 419.44 533.91 421.89 536.06 421.86 C 544.62 422.26 553.21 421.60 561.78 422.18 C 561.99 431.07 561.99 439.98 561.83 448.87 C 552.60 449.17 543.36 449.20 534.14 448.82 C 533.71 439.91 534.33 430.98 533.87 422.07 C 524.96 421.89 516.04 421.87 507.14 422.09 C 506.60 431.02 507.28 439.97 506.89 448.91 C 499.59 449.25 492.28 448.92 484.97 449.09 C 483.42 449.01 481.80 449.29 480.33 448.72 C 479.40 446.31 480.07 443.59 479.92 441.06 C 480.11 437.62 479.40 434.01 480.54 430.69 C 481.79 428.78 483.44 427.15 484.40 425.06 C 487.92 418.97 491.58 412.59 492.04 405.41 C 493.47 410.80 492.58 416.44 493.13 421.94 C 491.87 423.52 491.07 425.36 492.82 426.94 C 493.54 426.30 494.26 425.66 494.99 425.03 C 494.55 424.05 494.13 423.08 493.73 422.10 C 497.73 421.95 501.76 422.30 505.73 421.70 C 507.37 420.75 506.79 418.60 507.01 417.05 C 506.89 409.73 507.14 402.41 506.84 395.10 C 503.16 394.89 499.46 394.84 495.78 394.98 C 495.78 394.37 495.79 393.15 495.79 392.55 C 495.36 392.27 494.51 391.73 494.08 391.45 C 493.30 387.93 493.77 384.28 493.49 380.72 C 493.90 380.30 494.71 379.48 495.11 379.07 C 494.73 378.63 493.95 377.75 493.56 377.32 C 492.75 377.78 491.95 378.26 491.15 378.74 C 490.20 374.44 488.05 370.58 486.14 366.67 L 487.98 366.74 C 494.27 367.21 500.58 367.05 506.88 366.90 C 506.96 357.97 507.06 349.02 506.86 340.09 C 497.92 339.66 488.97 340.29 480.04 339.81 C 479.91 330.89 479.75 321.97 480.04 313.05 C 488.96 312.82 497.90 312.84 506.83 313.03 C 507.38 321.33 506.48 329.66 507.15 337.94 C 507.24 340.41 510.31 339.86 511.98 340.03 C 518.62 339.79 525.29 340.31 531.91 339.80 C 534.47 339.71 533.94 336.69 534.07 334.95 C 533.90 327.99 534.35 321.02 533.87 314.08 C 533.97 311.99 531.49 312.11 530.08 312.04 C 522.41 312.00 514.73 312.20 507.07 311.95 C 506.81 304.29 507.07 296.61 506.97 288.95 C 506.82 287.53 507.03 285.06 504.94 285.21 C 499.35 284.85 493.71 284.91 488.11 285.27 C 487.90 284.70 487.46 283.57 487.24 283.00 C 488.92 281.39 490.77 279.98 492.44 278.35 C 493.33 279.02 494.24 279.69 495.15 280.37 C 496.74 278.85 496.63 276.22 494.09 276.13 C 496.82 275.17 495.87 270.73 499.35 270.94 C 499.31 269.66 499.26 268.38 499.21 267.10 C 498.57 266.24 498.18 265.31 498.03 264.29 C 498.58 262.20 499.21 260.13 499.67 258.02 C 501.70 257.95 503.75 258.00 505.77 257.67 C 507.17 257.02 506.78 255.25 506.97 254.02 C 507.10 246.06 506.77 238.09 507.12 230.13 C 516.06 229.79 525.00 230.36 533.93 229.92 C 534.10 220.94 534.07 211.97 534.01 202.99 M 507.20 258.09 C 506.73 267.02 506.97 275.99 507.08 284.93 C 514.05 285.22 521.02 284.83 528.00 285.08 C 529.89 285.04 531.87 285.31 533.70 284.67 C 534.33 282.84 534.05 280.85 534.11 278.96 C 533.91 271.98 534.29 264.99 533.86 258.02 C 524.98 257.85 516.08 257.90 507.20 258.09 M 507.10 368.96 C 506.75 375.96 507.16 382.99 506.92 390.01 C 506.97 391.69 506.63 394.79 509.11 394.78 C 516.07 395.11 523.06 394.85 530.03 394.93 C 531.52 394.87 534.00 395.06 533.92 392.88 C 534.20 384.30 534.08 375.69 533.92 367.11 C 526.63 366.92 519.33 367.15 512.05 366.95 C 510.30 366.99 507.47 366.61 507.10 368.96 Z" />
<path fill="#010101" opacity="0.05" d=" M 124.07 231.00 C 133.01 230.72 141.97 230.75 150.91 231.07 C 151.13 239.70 151.10 248.35 150.93 256.99 C 141.98 257.16 133.00 257.29 124.06 256.92 C 123.91 248.28 123.86 239.63 124.07 231.00 Z" />
<path fill="#010101" opacity="0.05" d=" M 97.04 258.12 C 105.97 257.83 114.92 257.81 123.84 258.13 C 124.27 267.07 123.70 276.02 124.11 284.96 C 133.03 285.13 141.96 285.04 150.88 284.89 C 151.38 275.98 150.72 267.05 151.19 258.14 C 154.07 258.03 156.95 257.80 159.82 257.48 C 161.50 266.51 163.22 275.53 164.89 284.56 C 160.72 285.11 156.49 284.80 152.31 285.26 C 150.67 286.26 151.21 288.42 150.99 290.02 C 151.02 297.33 151.01 304.64 151.14 311.95 C 157.37 311.77 163.90 313.22 169.88 311.00 C 171.65 320.70 173.50 330.38 175.32 340.08 C 167.27 339.88 159.20 339.85 151.15 340.13 C 150.86 347.09 151.18 354.05 150.98 361.02 C 151.12 362.93 150.72 365.21 152.13 366.76 C 157.43 367.43 162.78 366.89 168.10 367.05 C 168.86 367.94 169.63 368.83 170.40 369.73 C 168.90 372.49 167.74 375.42 166.87 378.44 C 165.70 378.82 163.89 378.49 163.37 379.90 C 164.71 383.59 164.91 387.63 163.98 391.44 C 163.55 391.73 162.69 392.31 162.26 392.60 C 162.27 393.21 162.27 394.41 162.28 395.02 C 158.57 394.86 154.86 394.88 151.15 395.08 C 150.89 402.03 151.15 408.98 150.98 415.94 C 150.89 417.99 151.31 420.01 151.89 421.97 C 156.08 421.87 160.27 422.00 164.47 422.13 C 163.97 423.20 163.45 424.27 162.92 425.34 C 164.19 426.31 165.55 426.50 166.79 425.37 C 166.16 423.97 165.21 422.64 165.28 421.04 C 165.16 416.15 165.27 411.26 165.29 406.37 C 165.84 407.67 166.39 408.98 166.87 410.32 C 168.31 415.56 170.92 420.38 173.66 425.04 C 175.01 427.96 177.57 430.15 178.74 433.15 C 179.24 438.36 178.81 443.61 178.80 448.84 C 169.59 449.17 160.35 449.13 151.14 448.88 C 150.83 439.97 151.27 431.05 150.95 422.14 C 142.01 421.91 133.06 421.82 124.12 422.12 C 123.66 431.02 124.17 439.94 123.89 448.85 C 115.60 449.21 107.30 449.03 99.02 449.01 C 96.07 449.33 97.00 445.81 96.87 444.02 C 97.28 436.78 96.35 429.43 97.29 422.26 C 105.44 421.50 113.72 422.33 121.90 421.88 C 124.02 421.93 123.97 419.51 124.02 418.02 C 124.11 410.38 123.64 402.73 124.16 395.10 C 132.41 394.58 140.69 395.27 148.94 394.79 C 151.00 394.88 151.03 392.50 151.05 391.03 C 151.02 383.06 151.16 375.09 150.87 367.13 C 143.25 366.92 135.62 367.07 128.00 367.02 C 126.54 366.97 124.14 367.07 124.11 369.05 C 123.63 377.33 124.31 385.64 123.81 393.92 C 114.90 394.17 105.96 394.28 97.05 393.96 C 96.82 385.00 96.85 376.03 97.03 367.07 C 105.99 366.80 114.96 367.32 123.92 366.85 C 124.10 357.93 124.01 349.01 123.85 340.09 C 116.23 339.68 108.59 340.12 100.96 339.92 C 99.28 340.01 96.20 339.56 96.13 342.02 C 95.82 350.32 96.38 358.63 95.95 366.93 C 87.97 367.13 79.99 367.07 72.01 366.98 C 70.70 366.88 69.11 367.57 69.10 369.08 C 68.76 377.37 69.31 385.69 68.86 393.99 C 59.95 394.16 51.04 394.20 42.14 393.94 C 41.42 385.18 42.81 376.27 41.46 367.59 C 32.57 365.95 23.28 368.02 14.38 366.61 C 13.66 357.88 14.15 348.97 14.16 340.18 C 22.76 339.58 31.38 340.23 39.98 339.85 C 42.06 339.96 41.74 337.39 41.93 336.03 C 42.18 328.38 41.69 320.72 42.13 313.07 C 51.06 312.79 60.02 312.76 68.96 313.11 C 69.04 320.39 69.05 327.67 68.99 334.96 C 69.04 336.42 68.88 338.00 69.55 339.37 C 72.57 340.37 75.83 339.90 78.96 339.97 C 84.29 339.79 89.64 340.24 94.96 339.85 C 96.56 339.96 96.85 338.30 96.89 337.07 C 97.12 329.08 96.63 321.07 97.08 313.07 C 106.00 312.84 114.95 312.82 123.87 313.12 C 124.26 321.40 123.71 329.70 124.07 337.98 C 124.36 340.36 127.26 339.80 128.95 339.97 C 136.19 339.82 143.46 340.32 150.67 339.57 C 151.41 332.09 150.87 324.55 151.10 317.04 C 150.99 315.34 151.46 312.29 148.97 312.23 C 140.70 311.67 132.38 312.44 124.10 311.89 C 123.70 303.62 124.25 295.33 123.84 287.06 C 123.97 285.47 122.20 285.03 120.96 285.08 C 112.99 284.81 105.00 285.28 97.02 284.86 C 96.83 275.95 96.80 267.03 97.04 258.12 M 42.11 340.06 C 41.94 349.00 41.78 357.95 42.15 366.88 C 51.07 367.08 59.99 367.15 68.90 366.93 C 69.05 357.98 69.19 349.01 68.85 340.07 C 59.94 339.74 51.02 340.02 42.11 340.06 Z" />
<path fill="#010101" opacity="0.05" d=" M 196.34 285.54 C 199.55 285.47 202.76 285.46 205.96 285.48 C 205.92 294.29 206.23 303.11 205.85 311.92 C 203.51 311.99 201.18 312.06 198.86 312.13 C 197.38 304.38 195.99 296.61 194.45 288.88 C 195.09 287.77 195.72 286.66 196.34 285.54 Z" />
<path fill="#010101" opacity="0.05" d=" M 233.98 285.48 C 242.67 285.48 251.36 285.48 260.05 285.48 C 260.12 294.31 260.29 303.15 259.95 311.97 C 251.29 312.10 242.64 312.16 233.99 311.92 C 233.80 303.11 233.77 294.29 233.98 285.48 Z" />
<path fill="#010101" opacity="0.05" d=" M 287.98 285.48 C 296.98 285.48 305.98 285.48 314.98 285.48 C 315.03 294.31 315.23 303.14 314.97 311.96 C 306.03 312.15 297.08 312.21 288.15 311.91 C 287.77 303.10 288.19 294.29 287.98 285.48 Z" />
<path fill="#010101" opacity="0.05" d=" M 342.98 285.48 C 351.99 285.48 361.00 285.48 370.01 285.48 C 370.03 294.29 370.09 303.10 369.88 311.90 C 360.96 312.18 352.02 312.20 343.10 311.92 C 342.74 303.11 343.04 294.30 342.98 285.48 Z" />
<path fill="#010101" opacity="0.05" d=" M 398.01 285.48 C 407.01 285.48 416.01 285.48 425.02 285.48 C 424.76 294.30 425.22 303.13 424.83 311.94 C 415.93 312.19 407.01 312.18 398.11 311.92 C 397.75 303.11 397.91 294.29 398.01 285.48 Z" />
<path fill="#010101" opacity="0.05" d=" M 452.01 285.48 C 459.24 285.63 466.49 285.17 473.69 285.68 L 474.21 287.68 L 474.33 288.14 C 475.87 288.25 477.42 288.31 478.97 288.38 C 479.11 296.24 479.22 304.11 478.97 311.97 C 470.03 312.13 461.08 312.11 452.15 311.97 C 451.80 303.14 452.15 294.31 452.01 285.48 Z" />
<path fill="#010101" opacity="0.05" d=" M 206.13 313.06 C 215.06 312.85 224.00 312.70 232.92 313.10 C 233.21 321.79 232.98 330.50 233.04 339.20 C 224.07 339.15 215.10 339.34 206.14 339.11 C 206.14 338.70 206.13 337.89 206.12 337.48 C 205.91 329.34 205.86 321.19 206.13 313.06 Z" />
<path fill="#010101" opacity="0.05" d=" M 261.05 313.02 C 269.99 312.88 278.94 312.78 287.88 313.04 C 288.13 321.76 287.89 330.47 288.03 339.19 C 279.00 339.23 269.97 339.22 260.95 339.20 C 261.00 330.47 260.83 321.74 261.05 313.02 Z" />
<path fill="#010101" opacity="0.05" d=" M 316.07 313.07 C 324.67 312.76 333.29 312.84 341.90 313.06 C 342.32 321.76 342.08 330.48 342.06 339.19 C 333.34 339.26 324.62 339.21 315.91 339.20 C 315.99 330.49 315.67 321.78 316.07 313.07 Z" />
<path fill="#010101" opacity="0.05" d=" M 370.11 313.01 C 379.04 312.86 387.98 312.70 396.91 313.02 C 397.17 321.74 397.08 330.48 397.04 339.20 C 388.02 339.20 379.01 339.22 370.00 339.18 C 370.09 330.46 369.91 321.73 370.11 313.01 Z" />
<path fill="#010101" opacity="0.05" d=" M 425.09 313.01 C 434.02 312.87 442.97 312.76 451.90 313.11 C 452.22 321.78 451.92 330.46 452.01 339.14 C 443.01 339.32 434.00 339.18 425.00 339.18 C 424.99 330.46 424.82 321.73 425.09 313.01 Z" />
<path fill="#010101" opacity="0.05" d=" M 206.63 370.76 C 209.76 369.41 213.03 367.90 216.51 368.01 C 216.78 368.44 217.30 369.29 217.57 369.72 C 218.91 369.73 220.25 369.74 221.59 369.76 C 221.90 369.23 222.50 368.18 222.81 367.65 C 226.46 368.40 230.11 369.41 233.36 371.29 C 232.76 377.18 233.15 383.10 233.01 389.01 C 233.03 390.82 232.94 392.70 233.60 394.43 C 236.98 395.27 240.51 394.87 243.97 394.94 C 244.60 396.31 246.07 397.40 246.07 399.01 C 245.69 402.72 243.95 406.09 242.21 409.33 C 240.45 411.78 238.42 414.07 236.03 415.93 C 235.16 416.52 234.28 417.09 233.38 417.64 C 232.65 411.08 233.28 404.49 233.06 397.93 C 232.97 396.52 232.97 394.09 230.96 394.18 C 222.68 393.88 214.38 394.31 206.10 393.96 C 205.83 386.74 206.05 379.51 205.91 372.28 C 204.99 372.55 204.07 372.84 203.16 373.14 C 204.23 372.23 205.36 371.37 206.63 370.76 Z" />
<path fill="#010101" opacity="0.05" d=" M 269.33 367.69 C 275.56 367.65 281.79 367.68 288.02 367.67 C 287.94 375.47 288.01 383.27 287.98 391.07 C 287.79 392.26 288.21 394.11 286.76 394.65 C 283.50 395.18 280.18 394.91 276.89 394.94 C 276.90 394.32 276.92 393.09 276.92 392.48 C 273.20 391.49 275.13 386.87 275.93 384.30 C 273.11 383.01 272.71 379.95 272.09 377.28 C 272.65 376.60 273.22 375.92 273.80 375.25 C 271.02 373.67 269.23 370.96 269.33 367.69 Z" />
<path fill="#010101" opacity="0.05" d=" M 314.98 367.67 C 324.30 367.67 333.61 367.67 342.93 367.67 C 343.16 376.36 342.56 385.08 343.21 393.74 C 345.22 395.70 348.45 394.65 350.99 394.96 C 357.10 394.53 363.35 395.61 369.38 394.43 C 370.19 392.40 369.98 390.15 370.04 388.01 C 369.90 381.23 370.03 374.45 370.03 367.67 C 376.26 367.67 382.49 367.66 388.72 367.68 C 388.87 370.82 387.19 373.45 384.61 375.12 C 386.78 378.15 385.31 382.62 382.14 384.33 C 383.02 386.90 384.75 391.36 381.16 392.53 C 381.16 393.14 381.18 394.37 381.19 394.99 C 377.50 394.85 373.81 394.88 370.14 395.07 C 369.88 401.73 370.11 408.40 369.98 415.07 C 369.99 417.16 369.85 419.33 370.51 421.37 C 374.67 422.38 379.01 421.85 383.25 422.10 C 382.83 423.09 382.41 424.08 381.96 425.06 C 382.63 425.62 383.31 426.20 383.99 426.77 C 384.55 426.17 385.10 425.57 385.67 424.98 C 385.05 424.01 384.45 423.04 383.85 422.08 C 383.94 416.88 383.71 411.66 384.46 406.50 C 385.46 409.82 386.44 413.17 387.93 416.32 C 390.25 421.97 393.72 427.10 397.78 431.65 C 396.04 437.17 397.99 443.11 396.68 448.66 C 387.92 449.45 378.96 449.03 370.13 448.84 C 369.86 439.93 370.18 431.02 369.88 422.12 C 360.95 421.79 352.01 421.90 343.08 422.14 C 342.71 431.06 343.21 440.00 342.79 448.92 C 333.57 449.00 324.34 449.26 315.13 448.87 C 314.87 439.94 315.35 431.01 314.92 422.10 C 305.95 421.81 296.98 422.08 288.00 421.98 C 288.05 413.01 287.88 404.04 288.15 395.08 C 296.42 394.61 304.72 395.30 312.97 394.78 C 315.47 394.67 314.96 391.72 315.10 390.00 C 315.07 382.56 315.13 375.12 314.98 367.67 M 315.14 395.12 C 315.02 402.75 315.06 410.38 315.04 418.01 C 315.11 419.40 314.99 421.84 316.99 421.85 C 322.98 422.27 329.00 421.81 335.00 421.98 C 337.44 421.89 339.99 422.28 342.34 421.46 C 343.20 419.08 342.88 416.50 342.95 414.03 C 342.81 407.70 343.16 401.37 342.83 395.05 C 333.60 394.83 324.36 394.74 315.14 395.12 Z" />
<path fill="#010101" opacity="0.05" d=" M 424.67 371.27 C 427.86 369.75 431.23 367.98 434.86 368.08 C 436.36 369.55 438.29 369.96 440.34 369.82 C 440.63 369.41 441.21 368.59 441.50 368.18 C 445.29 367.64 448.96 369.75 452.33 371.33 C 451.90 379.08 451.66 386.90 452.42 394.65 C 456.02 394.89 459.63 395.03 463.24 395.04 C 463.29 395.36 463.37 396.00 463.42 396.32 C 463.80 396.78 464.57 397.70 464.96 398.16 C 464.87 402.16 462.99 405.84 461.17 409.31 C 458.98 412.33 456.26 414.93 453.30 417.18 L 452.30 417.71 C 451.55 409.95 452.48 402.15 451.69 394.40 C 442.92 393.81 434.10 394.03 425.32 394.34 C 424.36 402.07 425.52 409.88 424.61 417.62 L 423.83 417.60 C 421.04 414.96 418.08 412.48 415.84 409.33 C 414.21 406.40 412.75 403.31 412.14 399.99 C 411.50 398.45 412.37 397.23 413.52 396.27 C 413.57 395.94 413.66 395.29 413.71 394.96 C 417.48 394.97 421.35 395.30 425.00 394.07 C 424.88 386.47 425.25 378.86 424.67 371.27 Z" />
<path fill="#010101" opacity="0.05" d=" M 14.98 395.09 C 22.64 394.68 30.31 395.04 37.98 394.87 C 39.20 395.13 41.65 394.30 41.89 396.11 C 42.32 404.69 41.73 413.30 42.06 421.89 C 51.01 421.99 59.97 422.16 68.91 421.89 C 69.23 412.95 68.80 404.01 69.20 395.08 C 78.09 394.84 87.00 394.84 95.89 395.06 C 96.26 401.67 95.89 408.30 96.12 414.92 C 96.09 417.16 96.38 419.49 95.74 421.68 C 87.86 422.55 79.88 421.60 71.97 422.03 C 70.77 421.95 69.01 422.49 69.16 424.00 C 68.76 432.29 69.28 440.60 68.88 448.90 C 59.96 449.10 51.02 449.20 42.11 448.87 C 41.77 441.24 42.04 433.61 41.96 425.99 C 41.86 424.55 42.09 422.08 39.99 422.11 C 31.79 421.46 23.49 422.62 15.33 421.63 C 14.32 412.91 15.04 403.91 14.98 395.09 Z" />
<path fill="#010101" opacity="0.05" d=" M 194.82 394.98 C 198.51 394.85 202.20 394.86 205.89 395.01 C 205.92 402.54 206.29 410.09 205.70 417.62 C 205.30 417.38 204.51 416.92 204.11 416.69 C 199.66 413.36 196.06 408.81 194.15 403.57 C 193.76 401.23 191.63 397.74 194.68 396.34 C 194.72 396.00 194.79 395.32 194.82 394.98 Z" />
<path fill="#010101" opacity="0.05" d=" M 267.00 422.36 C 270.38 417.67 271.67 412.00 273.85 406.74 C 274.27 411.87 274.04 417.03 274.24 422.17 C 273.62 423.05 273.00 423.94 272.38 424.83 C 273.00 425.48 273.62 426.13 274.24 426.79 C 274.84 426.21 275.43 425.63 276.04 425.05 C 275.64 424.06 275.26 423.07 274.91 422.08 C 279.27 421.99 283.64 421.95 288.00 421.98 C 287.96 430.93 288.17 439.89 287.86 448.83 C 278.96 449.23 270.03 449.02 261.12 448.93 C 260.87 443.61 260.81 438.26 261.05 432.95 C 261.34 429.22 265.62 427.77 266.32 424.24 C 266.49 423.77 266.83 422.83 267.00 422.36 Z" />
</g>
<g id="#fd7e14ff">
<path fill="#000" opacity="1.00" d=" M 54.16 13.30 C 56.94 11.00 60.70 11.89 64.01 11.78 C 82.34 11.86 100.68 11.76 119.01 11.81 C 120.89 11.46 122.16 12.81 123.29 14.07 C 125.40 14.11 127.42 13.59 128.98 12.13 C 135.35 14.17 141.44 18.18 143.72 24.78 C 143.28 26.42 142.87 28.08 142.47 29.73 C 143.62 30.77 145.43 31.44 145.72 33.16 C 147.86 41.77 148.10 50.86 151.27 59.20 C 151.34 59.59 151.49 60.38 151.56 60.77 C 150.83 63.15 149.42 65.49 149.72 68.07 C 150.94 69.31 153.03 68.56 154.62 68.77 C 154.73 68.22 154.93 67.12 155.04 66.56 C 252.69 66.29 350.36 66.52 448.02 66.45 C 469.05 66.55 490.09 66.21 511.12 66.61 C 511.16 67.19 511.26 68.34 511.31 68.92 C 514.24 68.99 516.80 67.60 519.34 66.30 L 520.47 66.25 C 520.70 66.70 521.15 67.59 521.37 68.04 C 521.37 67.65 521.38 66.88 521.38 66.49 C 523.33 66.01 525.27 65.41 527.09 64.50 C 527.61 65.03 528.13 65.57 528.67 66.10 C 528.17 66.68 527.67 67.26 527.17 67.84 C 525.48 67.05 523.70 66.32 521.78 66.55 C 524.37 69.12 527.94 70.60 530.02 73.71 C 531.98 78.20 533.82 82.84 534.00 87.81 C 533.32 87.98 531.98 88.33 531.30 88.50 C 531.28 89.93 531.27 91.36 531.26 92.79 C 531.68 93.10 532.52 93.72 532.94 94.03 C 521.29 150.28 509.50 206.50 497.88 262.76 C 497.59 263.77 497.28 264.77 496.97 265.78 C 496.26 265.92 494.82 266.20 494.10 266.34 C 494.28 268.55 494.49 270.77 494.78 272.98 C 492.02 278.68 486.76 283.15 480.42 284.18 C 478.83 282.59 476.71 282.22 474.57 282.26 C 474.32 282.86 473.83 284.07 473.59 284.67 C 381.17 284.72 288.76 284.57 196.35 284.72 C 196.13 284.13 195.71 282.95 195.50 282.36 C 194.03 282.30 192.56 282.25 191.10 282.21 C 190.95 283.74 190.88 285.29 190.76 286.84 C 192.17 287.95 194.09 288.93 194.09 291.00 C 196.64 305.08 199.22 319.16 201.93 333.20 C 202.33 336.26 201.03 339.22 200.86 342.27 C 202.55 342.23 204.25 342.20 205.96 342.11 C 206.00 341.54 206.08 340.38 206.12 339.81 C 270.40 339.43 334.69 339.75 398.97 339.65 C 417.32 339.79 435.68 339.36 454.03 339.90 C 454.10 340.60 454.25 342.02 454.32 342.73 C 455.90 342.65 457.47 342.57 459.05 342.47 C 460.31 341.32 461.81 340.55 463.52 340.27 C 463.77 340.40 464.29 340.64 464.55 340.76 C 464.10 338.94 466.00 337.79 467.58 338.44 C 468.28 339.64 467.26 340.82 466.86 341.91 C 468.32 342.91 469.72 344.02 470.89 345.36 C 472.15 347.36 473.51 349.33 474.49 351.49 C 474.61 353.69 474.13 355.86 473.94 358.05 C 475.74 357.81 477.55 357.58 479.36 357.32 C 481.33 359.19 483.18 361.19 484.99 363.22 C 486.77 363.62 489.59 364.35 487.98 366.74 L 486.14 366.67 C 488.05 370.58 490.20 374.44 491.15 378.74 C 491.95 378.26 492.75 377.78 493.56 377.32 C 493.95 377.75 494.73 378.63 495.11 379.07 C 494.71 379.48 493.90 380.30 493.49 380.72 C 492.98 380.64 491.96 380.49 491.44 380.41 C 491.67 384.03 492.07 387.65 492.54 391.25 C 491.28 392.32 489.70 394.03 490.97 395.74 C 493.56 398.46 491.79 402.14 492.04 405.41 C 491.58 412.59 487.92 418.97 484.40 425.06 C 478.71 432.96 471.45 440.27 462.26 443.90 C 455.60 445.98 448.92 448.20 441.89 448.60 C 440.19 446.06 436.82 446.14 435.07 448.57 C 432.55 448.26 430.02 447.99 427.49 447.98 C 415.99 446.69 405.62 439.91 397.78 431.65 C 393.72 427.10 390.25 421.97 387.93 416.32 C 386.83 410.16 384.69 404.19 384.34 397.89 C 386.82 396.35 387.13 392.96 384.53 391.36 C 385.01 384.06 386.34 376.60 390.28 370.30 C 391.44 369.92 392.62 369.60 393.82 369.32 C 393.58 367.78 393.93 366.02 393.03 364.68 C 390.86 364.09 389.12 365.28 387.76 366.83 C 349.48 366.89 311.21 366.85 272.94 366.86 C 270.01 366.81 267.78 364.29 264.74 364.58 C 264.67 366.04 264.60 367.50 264.54 368.97 C 265.93 369.71 267.81 369.94 268.68 371.40 C 271.72 377.54 273.03 384.35 273.58 391.13 C 270.94 393.06 271.49 396.17 273.62 398.23 C 273.54 406.76 269.82 414.50 267.00 422.36 C 266.83 422.83 266.49 423.77 266.32 424.24 C 266.15 423.99 265.80 423.49 265.62 423.24 C 265.96 425.21 264.30 426.57 263.27 428.03 C 258.35 434.08 252.56 439.89 245.28 442.96 C 238.15 445.57 230.98 448.14 223.32 448.66 C 222.51 447.90 221.70 447.13 220.89 446.36 C 219.06 446.72 217.39 447.56 215.73 448.37 C 213.36 448.58 210.98 448.02 208.61 448.01 C 194.25 446.26 181.80 436.65 173.66 425.04 C 170.92 420.38 168.31 415.56 166.87 410.32 C 166.68 405.49 165.12 400.50 166.91 395.79 C 167.78 393.16 165.70 390.67 166.00 388.00 C 166.47 378.80 170.57 370.18 175.63 362.64 C 176.89 360.46 179.55 360.27 181.73 359.67 C 181.71 358.25 181.70 356.84 181.69 355.43 C 181.03 355.25 179.71 354.89 179.04 354.72 C 174.05 330.78 169.99 306.66 165.33 282.65 C 150.57 203.41 135.63 124.19 120.86 44.96 C 120.88 41.95 121.83 39.04 122.02 36.04 C 119.72 36.09 117.32 36.26 115.68 38.10 C 102.45 38.47 89.21 38.16 75.98 38.26 C 69.19 38.13 62.37 38.52 55.59 37.97 C 53.87 35.30 50.34 36.02 48.13 37.61 C 47.49 37.41 46.21 37.01 45.57 36.81 C 44.94 36.27 44.33 35.71 43.74 35.13 C 42.47 31.79 46.35 27.27 42.19 25.34 C 44.70 23.49 44.77 20.47 43.06 18.03 C 43.35 17.16 43.63 16.29 43.92 15.43 L 44.30 14.31 L 45.34 14.00 C 46.25 13.74 47.15 13.48 48.06 13.22 C 50.05 13.51 52.37 14.74 54.16 13.30 M 154.83 90.99 C 154.87 92.56 154.91 94.13 154.97 95.70 C 155.57 95.97 156.77 96.52 157.37 96.80 C 158.89 100.69 159.17 104.97 160.03 109.04 C 167.88 151.16 175.78 193.27 183.65 235.39 C 184.83 241.62 185.80 247.90 187.32 254.06 C 186.90 254.56 186.07 255.56 185.65 256.06 C 185.71 257.46 185.78 258.85 185.84 260.26 C 187.54 260.23 189.24 260.13 190.93 259.96 C 190.92 259.39 190.89 258.25 190.88 257.68 C 196.25 258.14 201.62 258.08 206.98 257.55 C 215.97 258.15 225.02 258.27 234.01 257.61 C 242.99 258.17 252.03 258.23 261.01 257.60 C 270.30 258.15 279.64 258.22 288.93 257.58 C 297.60 258.29 306.33 258.15 315.00 257.53 C 321.64 258.24 328.33 257.93 335.00 258.00 C 346.98 257.40 359.00 258.67 370.97 257.62 C 379.29 258.14 387.67 258.17 396.00 257.69 C 412.01 258.57 428.01 257.26 444.00 258.03 C 452.17 257.00 460.34 258.60 468.53 257.79 C 468.61 258.39 468.78 259.59 468.87 260.19 C 470.36 259.95 472.32 260.77 473.55 259.68 C 473.74 257.84 474.34 255.34 472.17 254.45 C 483.13 201.73 493.94 148.98 505.14 96.31 C 505.82 96.20 507.16 95.99 507.84 95.89 C 507.84 94.27 507.85 92.66 507.87 91.05 C 506.33 91.06 504.80 91.08 503.28 91.11 C 502.75 93.20 500.89 93.57 499.02 93.44 C 413.05 93.37 327.06 93.44 241.09 93.40 C 214.72 93.26 188.34 93.66 161.97 93.32 C 160.41 93.47 159.63 92.71 159.63 91.02 C 158.03 91.00 156.43 90.99 154.83 90.99 M 203.71 368.38 C 205.53 368.53 207.36 367.76 209.21 367.75 C 208.35 368.76 207.49 369.76 206.63 370.76 C 205.36 371.37 204.23 372.23 203.16 373.14 C 199.46 375.96 196.52 379.82 194.72 384.12 C 190.10 384.94 196.09 377.81 192.17 377.98 C 189.72 377.49 191.38 380.41 191.70 381.45 C 192.69 384.64 192.31 388.16 191.82 391.42 C 191.35 391.63 190.40 392.07 189.93 392.28 C 189.47 394.38 189.17 397.18 192.01 397.57 C 192.08 400.64 192.60 403.80 191.92 406.84 C 191.71 408.20 190.42 409.52 191.10 410.93 C 191.78 410.92 193.16 410.90 193.85 410.89 C 193.35 408.45 191.86 405.58 194.15 403.57 C 196.06 408.81 199.66 413.36 204.11 416.69 C 205.10 418.93 207.82 419.41 209.35 421.20 C 207.43 421.23 205.54 420.48 203.64 420.63 C 201.79 421.20 203.67 424.69 205.09 423.19 C 208.40 420.83 212.61 421.76 216.34 422.16 C 217.10 424.04 218.92 424.93 220.87 424.24 C 224.53 420.56 230.99 420.76 234.98 423.82 C 235.75 422.75 236.48 421.60 235.76 420.29 C 233.76 420.69 231.78 421.29 229.72 421.14 C 231.46 418.92 235.26 418.87 236.03 415.93 C 238.42 414.07 240.45 411.78 242.21 409.33 C 243.96 408.18 244.87 406.22 246.16 404.64 C 246.33 406.73 245.85 408.78 245.22 410.77 C 246.42 410.71 248.30 411.66 248.54 409.85 C 247.41 406.01 247.27 401.97 247.76 398.02 C 248.22 397.59 249.13 396.73 249.59 396.30 C 249.62 395.07 249.64 393.85 249.66 392.64 C 248.47 391.68 247.24 390.65 247.58 388.96 C 247.06 385.23 248.24 381.62 248.26 377.94 C 247.49 378.03 245.93 378.21 245.16 378.30 C 245.87 380.21 246.42 382.21 246.10 384.28 C 244.81 382.70 243.94 380.71 242.16 379.60 C 240.18 376.78 237.72 374.31 234.98 372.24 C 233.80 370.43 231.64 369.62 230.49 367.81 C 232.32 367.94 234.13 368.34 235.90 368.83 C 236.15 367.76 236.47 365.66 234.85 365.63 C 230.25 366.66 225.05 367.39 220.79 364.89 C 218.89 363.90 217.02 365.01 216.39 366.92 C 212.42 367.09 207.66 368.44 204.52 365.22 C 203.33 365.71 202.09 367.56 203.71 368.38 M 422.98 365.26 C 422.21 366.26 421.17 367.48 422.59 368.50 C 424.50 368.34 426.37 367.82 428.30 367.79 C 426.75 369.10 425.00 370.19 423.71 371.78 C 420.69 373.98 418.08 376.71 415.83 379.69 C 413.95 380.66 413.30 382.82 411.95 384.33 C 411.70 382.44 412.52 380.60 412.38 378.75 C 411.99 376.95 408.76 377.95 409.62 379.63 C 412.11 383.05 411.38 387.40 410.80 391.30 C 408.80 392.19 408.29 393.95 408.58 396.00 C 409.03 396.53 409.95 397.59 410.40 398.12 C 410.41 402.06 411.01 406.18 409.34 409.90 C 409.75 410.28 410.56 411.04 410.97 411.42 C 411.41 411.06 412.31 410.34 412.76 409.98 C 412.09 408.28 411.55 406.49 411.90 404.65 C 413.13 406.27 414.11 408.16 415.84 409.33 C 418.08 412.48 421.04 414.96 423.83 417.60 C 425.23 418.88 426.81 419.94 428.36 421.03 C 426.43 421.24 424.52 420.41 422.63 420.64 C 421.03 421.42 422.21 423.31 423.45 423.72 C 427.23 420.61 433.61 420.79 437.13 424.26 C 439.04 424.92 440.74 423.79 442.15 422.64 C 446.11 422.67 450.30 421.88 454.01 423.69 C 454.81 422.70 455.60 421.57 454.35 420.55 C 452.43 420.66 450.56 421.37 448.61 421.16 C 450.12 419.76 452.13 418.92 453.30 417.18 C 456.26 414.93 458.98 412.33 461.17 409.31 C 462.86 408.14 463.77 406.23 465.07 404.70 C 465.84 406.78 463.00 410.25 465.86 411.23 C 466.31 410.93 467.21 410.31 467.66 410.01 C 466.23 406.85 466.45 403.34 466.56 399.97 C 466.29 397.49 469.40 395.70 468.19 393.19 C 465.61 389.76 466.41 385.15 467.01 381.21 C 467.29 380.10 467.97 377.73 465.93 377.86 C 462.77 378.40 466.10 382.34 465.03 384.41 C 463.78 382.81 462.99 380.77 461.18 379.72 C 459.02 376.72 456.33 374.12 453.39 371.91 C 452.25 370.06 450.19 369.16 448.57 367.85 C 450.48 367.61 452.34 368.12 454.12 368.81 C 455.03 367.77 455.67 365.86 453.71 365.57 C 449.95 366.80 446.00 366.54 442.11 366.37 C 441.58 365.94 440.52 365.06 439.99 364.62 C 439.27 364.64 437.82 364.69 437.10 364.71 C 433.14 367.62 427.35 366.86 422.98 365.26 Z" />
</g>
<g id="#793c0a98">
<path fill="#000" opacity="0.60" d=" M 154.97 65.39 C 162.94 65.72 170.92 65.43 178.90 65.53 C 187.95 65.55 196.99 65.56 206.04 65.53 C 215.03 65.52 224.02 65.53 233.02 65.52 C 242.34 65.56 251.67 65.56 261.00 65.52 C 270.00 65.53 279.01 65.53 288.02 65.53 C 297.02 65.55 306.01 65.55 315.01 65.53 C 324.33 65.53 333.65 65.52 342.97 65.53 C 351.98 65.55 360.99 65.55 370.01 65.53 C 379.02 65.52 388.04 65.53 397.06 65.53 C 406.35 65.56 415.65 65.55 424.95 65.53 C 433.98 65.53 443.02 65.53 452.05 65.53 C 461.37 65.55 470.68 65.55 479.99 65.53 C 489.00 65.51 498.01 65.55 507.01 65.52 C 508.37 65.50 509.72 65.48 511.09 65.45 C 511.10 65.74 511.11 66.32 511.12 66.61 C 490.09 66.21 469.05 66.55 448.02 66.45 C 350.36 66.52 252.69 66.29 155.04 66.56 C 155.02 66.27 154.99 65.69 154.97 65.39 Z" />
</g>
<g id="#87440aae">
<path fill="#000" opacity="0.68" d=" M 532.94 94.03 L 533.82 93.55 C 530.10 111.68 526.32 129.80 522.56 147.93 C 520.61 157.28 518.63 166.62 516.72 175.98 C 514.83 184.97 512.96 193.97 511.09 202.96 C 507.31 221.32 503.37 239.65 499.67 258.02 C 499.21 260.13 498.58 262.20 498.03 264.29 L 497.88 262.76 C 509.50 206.50 521.29 150.28 532.94 94.03 Z" />
</g>
<g id="#954a0cc4">
<path fill="#000" opacity="0.77" d=" M 190.87 257.26 C 195.91 257.00 200.96 256.86 206.00 257.28 C 214.98 257.07 223.98 256.72 232.97 257.24 C 242.29 257.00 251.63 256.78 260.95 257.27 C 269.96 256.94 278.99 256.79 287.99 257.31 C 297.31 256.80 306.65 256.99 315.97 257.30 C 324.65 256.78 333.35 256.97 342.04 257.19 C 351.37 256.97 360.71 256.81 370.04 257.23 C 379.03 256.95 388.03 256.91 397.02 257.16 C 406.34 256.85 415.66 257.00 424.98 257.16 C 434.00 257.26 443.01 256.75 452.02 257.31 C 457.48 256.91 462.96 256.99 468.44 257.03 L 468.53 257.79 C 460.34 258.60 452.17 257.00 444.00 258.03 C 428.01 257.26 412.01 258.57 396.00 257.69 C 387.67 258.17 379.29 258.14 370.97 257.62 C 359.00 258.67 346.98 257.40 335.00 258.00 C 328.33 257.93 321.64 258.24 315.00 257.53 C 306.33 258.15 297.60 258.29 288.93 257.58 C 279.64 258.22 270.30 258.15 261.01 257.60 C 252.03 258.23 242.99 258.17 234.01 257.61 C 225.02 258.27 215.97 258.15 206.98 257.55 C 201.62 258.08 196.25 258.14 190.88 257.68 L 190.87 257.26 Z" />
</g>
<g id="#8e450ab7">
<path fill="#000" opacity="0.72" d=" M 206.14 339.11 C 215.10 339.34 224.07 339.15 233.04 339.20 C 242.34 339.20 251.64 339.25 260.95 339.20 C 269.97 339.22 279.00 339.23 288.03 339.19 C 297.32 339.25 306.61 339.21 315.91 339.20 C 324.62 339.21 333.34 339.26 342.06 339.19 C 351.37 339.26 360.69 339.22 370.00 339.18 C 379.01 339.22 388.02 339.20 397.04 339.20 C 406.36 339.21 415.68 339.25 425.00 339.18 C 434.00 339.18 443.01 339.32 452.01 339.14 C 452.50 339.10 453.50 339.04 453.99 339.01 L 454.03 339.90 C 435.68 339.36 417.32 339.79 398.97 339.65 C 334.69 339.75 270.40 339.43 206.12 339.81 L 206.14 339.11 Z" />
</g>
</svg>
