<?xml version="1.0" encoding="UTF-8" ?>
<!DOCTYPE svg PUBLIC "-//W3C//DTD SVG 1.1//EN" "http://www.w3.org/Graphics/SVG/1.1/DTD/svg11.dtd">
<svg width="44pt" height="26pt" viewBox="0 0 44 26" version="1.1" xmlns="http://www.w3.org/2000/svg">
<g id="#666666fe">
<path fill="#666666" opacity="1.00" d=" M 12.86 0.00 L 39.25 0.00 C 40.83 0.99 42.41 1.98 43.99 2.98 C 43.39 3.39 42.19 4.21 41.58 4.63 C 42.19 5.03 43.39 5.84 43.99 6.25 C 43.39 6.64 42.19 7.43 41.59 7.82 C 42.19 8.24 43.39 9.09 43.99 9.51 C 43.39 9.89 42.19 10.65 41.59 11.03 C 42.19 11.47 43.39 12.35 43.99 12.79 C 39.71 16.72 33.81 15.56 28.54 15.61 C 28.19 17.99 28.90 21.03 26.71 22.70 C 23.46 25.15 19.23 25.53 15.32 26.00 L 13.66 26.00 C 8.82 25.56 3.13 25.12 0.00 20.86 L 0.00 5.41 C 2.61 0.97 8.29 0.63 12.86 0.00 M 2.07 6.92 C 6.28 10.10 11.80 10.67 16.89 10.24 C 20.30 9.85 24.19 9.25 26.27 6.19 C 21.94 2.93 16.25 2.39 11.01 2.92 C 7.75 3.33 4.06 3.98 2.07 6.92 M 26.21 2.58 C 29.23 5.25 28.26 9.39 28.38 12.93 C 32.01 12.94 35.64 12.94 39.28 12.94 C 38.36 12.30 37.44 11.66 36.52 11.03 C 37.15 10.65 38.41 9.88 39.04 9.50 C 38.19 8.94 37.35 8.38 36.51 7.83 C 37.35 7.30 38.20 6.76 39.04 6.23 C 38.41 5.84 37.15 5.05 36.51 4.65 C 37.21 4.18 38.59 3.24 39.29 2.77 C 34.93 2.64 30.57 2.76 26.21 2.58 M 2.61 10.68 C 2.66 13.77 2.46 16.87 2.76 19.96 C 5.04 22.52 8.87 22.75 12.06 23.18 C 16.56 23.35 21.61 23.16 25.35 20.36 C 26.23 17.24 25.58 13.86 25.77 10.65 C 18.49 13.85 9.90 13.81 2.61 10.68 Z" />
<path fill="#666666" opacity="1.00" d=" M 10.25 5.25 C 12.85 5.25 15.45 5.25 18.06 5.25 C 18.06 5.91 18.06 7.22 18.06 7.88 C 15.45 7.88 12.84 7.88 10.24 7.87 C 10.24 7.21 10.25 5.90 10.25 5.25 Z" />
</g>
</svg>
