<?xml version="1.0" encoding="UTF-8" ?>
<!DOCTYPE svg PUBLIC "-//W3C//DTD SVG 1.1//EN" "http://www.w3.org/Graphics/SVG/1.1/DTD/svg11.dtd">
<svg width="35pt" height="35pt" viewBox="0 0 35 35" version="1.1" xmlns="http://www.w3.org/2000/svg">
<g id="#666666ff">
<path fill="#666666" opacity="1.00" d=" M 0.00 0.00 L 10.47 0.00 C 9.53 2.51 7.81 5.15 9.15 7.86 C 8.04 9.83 8.34 12.01 9.26 13.98 C 8.31 17.27 7.56 20.73 5.28 23.41 C 3.74 21.39 2.38 19.25 0.94 17.16 C 1.48 15.78 2.00 14.39 2.50 12.99 C 2.10 12.53 1.29 11.61 0.88 11.15 C 3.44 7.69 1.43 3.58 0.00 0.12 L 0.00 0.00 M 2.92 2.18 C 3.19 2.70 3.73 3.74 4.01 4.26 C 5.54 4.07 7.07 3.77 7.60 2.10 C 6.04 2.09 4.48 2.12 2.92 2.18 M 4.38 6.17 C 2.99 6.96 4.17 9.47 5.61 8.32 C 7.10 7.54 5.82 4.98 4.38 6.17 M 4.17 11.02 C 4.17 11.90 4.18 13.67 4.19 14.55 C 4.29 14.51 4.51 14.43 4.62 14.38 C 5.02 14.23 5.82 13.93 6.22 13.77 C 6.21 12.53 6.20 11.28 6.19 10.03 C 5.52 10.36 4.84 10.69 4.17 11.02 M 5.18 19.63 C 6.47 19.33 6.86 17.30 6.00 16.39 C 4.06 15.53 3.31 19.26 5.18 19.63 Z" />
<path fill="#666666" opacity="1.00" d=" M 12.12 0.00 L 22.84 0.00 C 22.00 1.77 21.28 3.59 20.52 5.39 C 21.03 6.23 21.54 7.07 22.05 7.91 C 21.62 8.36 20.74 9.26 20.30 9.71 C 20.74 11.10 21.18 12.49 21.62 13.88 C 20.35 16.01 20.65 18.25 21.82 20.36 C 21.57 20.67 21.07 21.29 20.82 21.60 C 20.65 24.56 19.45 27.28 17.63 29.60 C 16.05 27.57 14.71 25.39 13.24 23.28 C 14.75 21.14 14.33 18.77 13.13 16.61 C 13.54 16.28 14.36 15.61 14.77 15.28 C 14.23 13.67 13.69 12.08 13.13 10.49 C 13.50 10.19 14.23 9.58 14.60 9.28 C 14.44 6.05 13.71 2.85 12.12 0.00 M 15.30 2.08 C 15.52 2.57 15.96 3.56 16.18 4.06 C 16.84 4.06 18.16 4.05 18.82 4.05 C 19.03 3.56 19.44 2.57 19.64 2.07 C 18.19 2.07 16.75 2.07 15.30 2.08 M 16.35 6.31 C 16.31 6.75 16.25 7.61 16.22 8.05 C 19.14 10.62 19.40 3.46 16.35 6.31 M 16.43 11.20 C 16.47 12.39 16.50 13.57 16.54 14.76 C 17.20 14.41 17.85 14.06 18.51 13.72 C 18.50 12.45 18.49 11.19 18.48 9.93 C 17.80 10.35 17.12 10.78 16.43 11.20 M 16.45 17.26 C 16.48 18.49 16.52 19.73 16.55 20.96 C 17.21 20.57 17.87 20.18 18.53 19.79 C 18.51 18.55 18.49 17.31 18.46 16.07 C 17.79 16.47 17.12 16.86 16.45 17.26 M 16.41 23.31 C 16.76 24.31 17.12 25.30 17.49 26.30 C 17.92 24.96 18.35 23.63 18.77 22.29 C 17.98 22.63 17.19 22.97 16.41 23.31 Z" />
<path fill="#666666" opacity="1.00" d=" M 24.61 0.00 L 35.00 0.00 L 35.00 0.15 C 34.33 1.92 33.59 3.66 32.88 5.41 C 33.22 6.12 33.56 6.83 33.90 7.54 C 32.69 9.57 32.88 11.85 33.82 13.93 C 33.40 15.27 32.99 16.61 32.58 17.95 C 32.96 18.41 33.72 19.34 34.10 19.80 C 33.54 21.20 33.01 22.62 32.49 24.04 C 32.89 24.50 33.68 25.41 34.08 25.87 C 32.89 28.98 32.48 32.53 30.04 35.00 L 29.55 35.00 C 28.18 33.15 26.84 31.28 25.52 29.39 C 27.06 27.47 26.69 25.17 25.79 23.06 C 27.04 21.12 26.67 18.92 25.75 16.93 C 27.07 14.99 26.73 12.81 25.71 10.83 C 27.92 7.35 25.96 3.39 24.61 0.00 M 27.43 2.12 C 27.97 3.74 29.49 4.05 30.98 4.30 C 31.25 3.76 31.77 2.68 32.04 2.14 C 30.50 2.11 28.97 2.10 27.43 2.12 M 29.02 6.25 C 28.45 7.89 28.97 8.45 30.60 7.92 C 31.19 6.30 30.66 5.74 29.02 6.25 M 28.83 11.00 C 28.81 12.25 28.81 13.49 28.79 14.74 C 29.46 14.42 30.14 14.10 30.81 13.78 C 30.80 12.50 30.79 11.21 30.78 9.92 C 30.29 10.19 29.32 10.73 28.83 11.00 M 28.87 17.03 C 28.84 18.32 28.79 19.62 28.78 20.91 C 29.46 20.57 30.15 20.23 30.83 19.88 C 30.81 18.63 30.80 17.37 30.79 16.12 C 30.31 16.35 29.35 16.80 28.87 17.03 M 28.80 23.37 C 28.80 24.57 28.80 25.78 28.79 26.98 C 29.48 26.65 30.17 26.32 30.86 25.99 C 30.83 24.74 30.80 23.49 30.76 22.24 C 30.11 22.61 29.45 22.99 28.80 23.37 M 29.34 28.89 C 28.14 29.60 28.87 32.52 30.38 31.31 C 31.52 30.55 30.91 27.65 29.34 28.89 Z" />
</g>
<g id="#1d1d1d4a">
</g>
<g id="#16161638">
</g>
<g id="#3838388e">
<path fill="#383838" opacity="0.56" d=" M 4.19 14.55 L 4.62 14.38 C 4.51 14.43 4.29 14.51 4.19 14.55 Z" />
</g>
</svg>
