<?xml version="1.0" encoding="UTF-8" ?>
<!DOCTYPE svg PUBLIC "-//W3C//DTD SVG 1.1//EN" "http://www.w3.org/Graphics/SVG/1.1/DTD/svg11.dtd">
<svg width="40pt" height="40pt" viewBox="0 0 40 40" version="1.1" xmlns="http://www.w3.org/2000/svg">
<g id="#666666ff">
<path fill="#666666" opacity="1.00" d=" M 35.31 0.00 L 38.28 0.00 C 37.99 1.39 38.57 1.92 40.00 1.59 L 40.00 4.05 C 37.44 11.48 34.96 18.94 32.23 26.31 C 31.72 28.32 29.29 29.72 27.41 28.57 C 24.62 26.67 22.47 24.00 20.07 21.66 C 19.01 22.72 17.94 23.78 16.88 24.84 C 17.26 25.30 18.02 26.21 18.40 26.67 C 14.16 31.12 9.34 35.05 5.65 40.00 L 4.12 40.00 C 3.27 38.17 1.97 36.56 0.00 35.87 L 0.00 34.41 C 4.90 30.64 8.89 25.87 13.33 21.61 C 13.79 21.99 14.70 22.74 15.16 23.12 C 16.22 22.05 17.28 20.99 18.35 19.93 C 16.00 17.52 13.32 15.39 11.43 12.58 C 10.29 10.73 11.66 8.29 13.66 7.78 C 20.81 5.02 28.21 2.91 35.31 0.00 M 12.95 10.86 C 15.20 13.43 17.63 15.83 20.07 18.22 C 22.61 15.64 25.16 13.08 27.81 10.62 C 28.09 11.10 28.65 12.05 28.93 12.53 C 26.80 15.23 24.17 17.47 21.78 19.93 C 24.17 22.37 26.57 24.80 29.14 27.05 C 32.47 18.99 35.42 10.72 37.68 2.31 C 29.28 4.60 21.00 7.51 12.95 10.86 M 3.22 35.18 C 3.69 35.47 4.63 36.07 5.10 36.37 C 8.62 33.32 11.70 29.81 15.06 26.59 C 14.67 26.17 13.89 25.32 13.51 24.90 C 10.04 28.29 6.61 31.71 3.22 35.18 Z" />
</g>
<g id="#15151535">
<path fill="#151515" opacity="0.21" d=" M 38.28 0.00 L 40.00 0.00 L 40.00 1.59 C 38.57 1.92 37.99 1.39 38.28 0.00 Z" />
</g>
<g id="#07070711">
<path fill="#070707" opacity="0.07" d=" M 3.22 35.18 C 6.61 31.71 10.04 28.29 13.51 24.90 C 13.89 25.32 14.67 26.17 15.06 26.59 C 11.70 29.81 8.62 33.32 5.10 36.37 C 4.63 36.07 3.69 35.47 3.22 35.18 Z" />
</g>
</svg>
