<?xml version="1.0" encoding="UTF-8" ?>
<!DOCTYPE svg PUBLIC "-//W3C//DTD SVG 1.1//EN" "http://www.w3.org/Graphics/SVG/1.1/DTD/svg11.dtd">
<svg width="34pt" height="34pt" viewBox="0 0 34 34" version="1.1" xmlns="http://www.w3.org/2000/svg">
<g id="#666666ff">
<path fill="#666666" opacity="1.00" d=" M 9.51 0.00 L 34.00 0.00 L 34.00 24.06 C 30.07 24.06 26.13 24.05 22.20 24.07 C 21.28 28.90 17.75 33.13 12.76 34.00 L 9.45 34.00 C 4.54 33.21 0.66 29.11 0.00 24.21 L 0.00 10.04 C 0.50 5.00 4.51 0.78 9.51 0.00 M 8.37 2.45 C 2.12 4.08 -0.03 12.94 4.74 17.28 C 9.20 22.12 18.30 19.69 19.64 13.20 C 21.64 6.78 14.71 0.14 8.37 2.45 M 17.46 2.04 C 17.98 2.52 19.02 3.46 19.55 3.93 C 23.70 3.94 27.85 3.94 32.00 3.93 C 32.00 3.45 32.00 2.49 32.00 2.00 C 27.15 2.00 22.30 1.97 17.46 2.04 M 20.99 5.99 C 22.43 9.85 21.95 14.02 22.00 18.05 C 25.33 18.06 28.66 18.06 32.00 18.05 C 32.00 14.04 32.00 10.02 32.00 6.00 C 28.33 6.00 24.66 6.01 20.99 5.99 M 2.00 17.48 C 2.07 19.91 1.94 22.36 2.30 24.77 C 2.98 28.85 6.90 32.04 11.03 31.95 C 15.16 32.03 19.08 28.84 19.75 24.75 C 20.06 22.37 19.93 19.95 20.00 17.56 C 15.61 23.33 6.34 23.29 2.00 17.48 M 22.00 20.07 C 22.00 20.55 22.00 21.51 22.00 22.00 C 25.33 22.00 28.67 22.00 32.00 22.00 C 32.00 21.51 32.00 20.55 32.00 20.07 C 28.67 20.06 25.33 20.06 22.00 20.07 Z" />
<path fill="#666666" opacity="1.00" d=" M 8.37 4.48 C 13.07 2.30 18.87 6.78 17.96 11.87 C 17.53 17.10 10.56 19.88 6.64 16.41 C 2.51 13.38 3.55 6.21 8.37 4.48 M 9.28 6.34 C 6.01 7.45 4.97 12.14 7.57 14.47 C 10.14 17.27 15.33 15.62 15.87 11.88 C 16.74 8.28 12.68 4.85 9.28 6.34 Z" />
<path fill="#666666" opacity="1.00" d=" M 9.38 8.39 C 11.28 7.05 14.29 8.70 14.04 11.05 C 14.12 12.97 11.92 14.53 10.13 13.84 C 7.71 13.27 7.24 9.62 9.38 8.39 M 10.12 10.20 C 9.62 11.75 10.22 12.25 11.92 11.72 C 12.42 10.17 11.82 9.66 10.12 10.20 Z" />
</g>
</svg>
