<?xml version="1.0" encoding="UTF-8" ?>
<!DOCTYPE svg PUBLIC "-//W3C//DTD SVG 1.1//EN" "http://www.w3.org/Graphics/SVG/1.1/DTD/svg11.dtd">
<svg width="38pt" height="36pt" viewBox="0 0 38 36" version="1.1" xmlns="http://www.w3.org/2000/svg">
<g id="#666666ff">
<path fill="#666666" opacity="1.00" d=" M 4.83 0.00 L 38.00 0.00 L 38.00 36.00 L 0.00 36.00 L 0.00 10.51 C 1.58 10.34 3.17 10.20 4.75 10.05 C 4.70 6.70 4.79 3.35 4.83 0.00 M 7.25 10.18 C 9.40 10.18 11.54 10.18 13.69 10.18 C 13.69 7.64 13.68 5.10 13.68 2.56 C 11.54 2.56 9.40 2.56 7.26 2.56 C 7.26 5.10 7.24 7.64 7.25 10.18 M 16.19 2.57 C 16.19 5.11 16.19 7.65 16.19 10.19 C 16.79 10.19 17.97 10.18 18.56 10.17 C 18.57 7.63 18.56 5.09 18.55 2.55 C 17.96 2.56 16.78 2.57 16.19 2.57 M 21.12 2.57 C 21.12 5.10 21.13 7.63 21.12 10.16 C 22.41 10.20 23.69 10.22 24.98 10.22 C 25.32 12.82 25.31 15.45 25.24 18.06 C 27.76 17.98 30.29 18.01 32.80 18.33 C 32.81 23.37 32.82 28.40 32.82 33.43 C 33.49 33.43 34.82 33.44 35.49 33.44 C 35.50 23.15 35.50 12.86 35.50 2.57 C 30.70 2.56 25.91 2.56 21.12 2.57 M 4.41 12.77 C 5.35 13.71 6.31 14.62 7.23 15.56 C 8.87 15.60 10.50 15.63 12.13 15.70 C 12.12 17.38 12.17 19.07 12.20 20.76 C 15.68 24.40 19.22 27.99 22.74 31.59 C 22.76 25.31 22.75 19.03 22.75 12.76 C 16.64 12.76 10.53 12.73 4.41 12.77 M 2.54 14.53 C 2.47 20.83 2.50 27.14 2.52 33.45 C 3.08 33.45 4.19 33.44 4.75 33.43 C 4.72 28.27 4.80 23.12 4.74 17.96 C 4.90 16.43 3.35 15.58 2.54 14.53 M 7.26 18.12 C 7.24 23.21 7.25 28.31 7.24 33.41 C 7.85 33.43 9.05 33.46 9.66 33.48 C 9.71 28.36 9.68 23.24 9.68 18.12 C 9.08 18.12 7.86 18.12 7.26 18.12 M 25.25 20.63 C 25.25 24.90 25.25 29.17 25.25 33.44 C 26.91 33.42 28.58 33.43 30.25 33.44 C 30.25 29.17 30.25 24.90 30.25 20.63 C 28.58 20.64 26.91 20.64 25.25 20.63 M 12.19 24.48 C 12.19 27.46 12.18 30.45 12.19 33.43 C 15.11 33.43 18.03 33.45 20.95 33.43 C 18.05 30.43 15.11 27.46 12.19 24.48 Z" />
</g>
</svg>
