<?xml version="1.0" encoding="UTF-8" ?>
<!DOCTYPE svg PUBLIC "-//W3C//DTD SVG 1.1//EN" "http://www.w3.org/Graphics/SVG/1.1/DTD/svg11.dtd">
<svg width="41pt" height="40pt" viewBox="0 0 41 40" version="1.1" xmlns="http://www.w3.org/2000/svg">
<g id="#666666ff">
<path fill="#666666" opacity="1.00" d=" M 20.05 0.00 L 23.16 0.00 C 28.06 1.35 32.99 2.62 37.86 4.11 C 39.31 4.42 40.12 5.72 41.00 6.78 L 41.00 9.30 C 39.57 12.96 35.16 12.86 32.00 13.98 C 28.04 14.81 24.14 16.94 20.02 16.26 C 16.87 15.54 16.78 12.00 16.75 9.41 C 16.21 9.42 15.13 9.42 14.59 9.43 C 14.54 10.01 14.45 11.19 14.40 11.77 C 9.60 11.74 4.80 11.75 0.00 11.75 L 0.00 4.69 C 4.81 4.69 9.61 4.69 14.42 4.68 C 14.46 5.26 14.53 6.42 14.57 7.00 C 15.12 7.00 16.22 7.00 16.77 7.00 C 16.62 4.24 17.07 1.06 20.05 0.00 M 19.22 6.97 C 21.67 7.00 24.12 7.01 26.56 7.01 C 26.56 7.61 26.56 8.82 26.56 9.43 C 24.13 9.43 21.70 9.44 19.27 9.44 C 19.15 11.38 19.18 14.58 22.07 14.06 C 27.09 12.99 32.00 11.43 36.94 10.04 C 39.23 9.84 38.94 6.39 36.78 6.30 C 31.80 4.97 26.90 3.28 21.83 2.35 C 19.06 1.97 19.25 5.15 19.22 6.97 M 2.44 7.07 C 2.44 7.64 2.44 8.79 2.44 9.37 C 5.64 9.38 8.85 9.38 12.05 9.37 C 12.05 8.79 12.06 7.64 12.06 7.07 C 8.85 7.06 5.65 7.06 2.44 7.07 Z" />
<path fill="#666666" opacity="1.00" d=" M 0.00 18.75 C 13.67 18.75 27.33 18.75 41.00 18.75 L 41.00 40.00 L 0.00 40.00 L 0.00 18.75 M 2.44 21.13 C 2.39 23.50 2.41 25.87 2.55 28.24 C 4.94 28.22 7.33 28.18 9.72 28.10 C 9.69 25.78 9.68 23.45 9.69 21.13 C 7.27 21.12 4.86 21.12 2.44 21.13 M 12.13 21.13 C 12.12 23.48 12.12 25.83 12.13 28.18 C 17.71 28.19 23.29 28.19 28.87 28.18 C 28.88 25.83 28.88 23.48 28.87 21.13 C 23.29 21.12 17.71 21.12 12.13 21.13 M 31.32 21.13 C 31.27 23.51 31.26 25.90 31.46 28.27 C 33.81 28.18 36.17 28.16 38.52 28.19 C 38.56 25.84 38.58 23.49 38.56 21.13 C 36.15 21.12 33.74 21.12 31.32 21.13 M 2.44 37.62 C 8.05 37.61 13.66 37.67 19.26 37.59 C 19.25 35.25 19.25 32.91 19.24 30.57 C 13.64 30.55 8.05 30.57 2.45 30.56 C 2.44 32.91 2.43 35.27 2.44 37.62 M 21.76 30.57 C 21.75 32.92 21.75 35.26 21.75 37.61 C 27.35 37.64 32.96 37.62 38.56 37.62 C 38.57 35.27 38.56 32.91 38.55 30.56 C 32.95 30.57 27.36 30.55 21.76 30.57 Z" />
</g>
</svg>
