<?xml version="1.0" encoding="UTF-8" ?>
<!DOCTYPE svg PUBLIC "-//W3C//DTD SVG 1.1//EN" "http://www.w3.org/Graphics/SVG/1.1/DTD/svg11.dtd">
<svg width="35pt" height="35pt" viewBox="0 0 35 35" version="1.1" xmlns="http://www.w3.org/2000/svg">
<g id="#666666ff">
<path fill="#666666" opacity="1.00" d=" M 18.34 0.00 L 19.63 0.00 C 27.10 0.96 33.57 7.10 35.00 14.49 L 35.00 31.56 C 33.86 32.55 32.61 33.55 32.03 35.00 L 28.70 35.00 C 26.15 34.10 25.15 31.65 24.64 29.21 C 22.77 31.43 20.67 33.48 18.19 35.00 L 14.30 35.00 C 7.36 33.23 1.65 27.46 0.00 20.48 L 0.00 17.58 C 0.65 16.19 1.43 14.87 2.22 13.56 C 2.32 10.96 2.14 8.08 3.95 5.97 C 7.30 1.38 13.63 2.21 18.34 0.00 M 15.53 4.45 C 14.57 7.28 16.20 10.06 17.51 12.47 C 22.50 12.46 27.50 12.29 32.49 12.64 C 30.23 7.86 26.19 3.64 20.92 2.36 C 18.94 1.80 16.28 2.27 15.53 4.45 M 4.14 11.81 C 7.00 9.34 9.66 6.64 12.22 3.87 C 8.00 4.26 4.17 7.34 4.14 11.81 M 4.91 14.29 C 6.18 16.07 7.96 17.33 10.05 17.96 C 11.12 16.54 12.95 15.04 14.78 16.15 C 17.03 17.13 16.99 20.78 14.72 21.70 C 12.22 23.02 10.62 19.88 8.35 19.49 C 6.13 18.95 4.56 17.25 3.04 15.67 C 0.66 20.10 3.60 25.03 6.73 28.20 C 9.60 30.98 13.59 33.67 17.77 32.71 C 20.61 30.93 22.59 28.11 25.15 25.97 C 25.00 24.38 24.67 22.76 23.34 21.73 C 18.90 17.36 13.61 12.86 12.97 6.21 C 10.32 8.94 7.61 11.61 4.91 14.29 M 19.17 14.51 C 21.49 16.97 24.12 19.14 26.22 21.80 C 28.08 24.71 26.32 28.52 27.60 31.55 C 28.92 34.08 33.00 32.90 32.83 30.07 C 32.77 25.31 33.59 20.26 32.35 15.67 C 28.66 13.18 23.46 15.11 19.17 14.51 M 12.50 18.09 C 12.05 19.75 12.62 20.29 14.20 19.71 C 14.66 18.06 14.09 17.52 12.50 18.09 Z" />
<path fill="#666666" opacity="1.00" d=" M 29.00 22.68 C 29.53 22.69 30.59 22.69 31.12 22.70 C 31.12 25.08 31.12 27.47 31.12 29.85 C 30.60 29.87 29.55 29.91 29.03 29.93 C 29.01 27.51 29.00 25.10 29.00 22.68 Z" />
</g>
</svg>
