<?xml version="1.0" encoding="UTF-8" ?>
<!DOCTYPE svg PUBLIC "-//W3C//DTD SVG 1.1//EN" "http://www.w3.org/Graphics/SVG/1.1/DTD/svg11.dtd">
<svg width="35pt" height="35pt" viewBox="0 0 35 35" version="1.1" xmlns="http://www.w3.org/2000/svg">
<g id="#666666ff">
<path fill="#666666" opacity="1.00" d=" M 0.00 0.00 L 35.00 0.00 L 35.00 35.00 L 25.01 35.00 L 34.67 34.97 C 33.06 34.13 31.45 33.30 29.83 32.49 C 28.44 33.35 27.05 34.20 25.63 35.00 L 25.03 35.00 C 23.83 31.24 19.89 33.00 17.82 35.00 L 17.19 35.00 C 15.89 34.13 14.66 33.02 13.13 32.61 C 11.83 33.04 10.69 33.84 9.96 35.00 L 9.47 35.00 C 8.07 34.12 6.65 33.26 5.23 32.42 C 3.60 33.26 1.97 34.12 0.35 34.98 L 7.70 35.00 L 0.00 35.00 L 0.00 0.00 M 2.06 2.06 C 2.06 4.42 2.06 6.78 2.06 9.14 C 3.10 8.65 4.15 8.14 5.19 7.64 C 6.21 8.14 7.23 8.64 8.25 9.14 C 8.25 6.78 8.25 4.42 8.25 2.06 C 6.19 2.06 4.12 2.06 2.06 2.06 M 10.37 2.07 C 10.37 4.41 10.37 6.76 10.38 9.11 C 11.37 8.61 12.37 8.12 13.36 7.62 C 14.13 7.99 15.67 8.73 16.44 9.10 C 16.44 6.75 16.44 4.41 16.44 2.06 C 14.41 2.06 12.39 2.07 10.37 2.07 M 18.57 2.06 C 18.56 4.40 18.56 6.75 18.56 9.09 C 19.33 8.72 20.87 7.99 21.65 7.63 C 22.64 8.12 23.63 8.62 24.62 9.11 C 24.63 6.76 24.63 4.42 24.63 2.07 C 22.61 2.07 20.59 2.06 18.57 2.06 M 26.75 2.06 C 26.75 4.42 26.75 6.78 26.75 9.14 C 27.77 8.64 28.78 8.14 29.80 7.64 C 30.84 8.14 31.89 8.64 32.94 9.14 C 32.94 6.78 32.94 4.42 32.94 2.06 C 30.88 2.06 28.81 2.06 26.75 2.06 M 2.12 11.44 C 2.05 14.09 2.05 16.75 2.07 19.40 C 3.10 18.90 4.14 18.40 5.17 17.89 C 6.20 18.39 7.22 18.89 8.25 19.39 C 8.25 16.78 8.25 14.18 8.26 11.57 C 7.25 11.05 6.24 10.53 5.22 10.01 C 4.19 10.49 3.16 10.97 2.12 11.44 M 10.39 11.50 C 10.38 14.11 10.38 16.71 10.34 19.32 C 12.32 17.92 14.45 17.83 16.46 19.27 C 16.43 16.70 16.43 14.13 16.45 11.56 C 15.40 11.03 14.35 10.51 13.30 10.00 C 12.33 10.50 11.36 11.00 10.39 11.50 M 18.65 11.35 C 18.55 14.01 18.54 16.68 18.56 19.35 C 19.58 18.86 20.61 18.37 21.63 17.88 C 22.63 18.37 23.62 18.86 24.61 19.35 C 24.63 16.73 24.63 14.12 24.61 11.50 C 23.67 11.01 22.73 10.52 21.79 10.03 C 20.74 10.47 19.70 10.91 18.65 11.35 M 26.74 11.57 C 26.75 14.17 26.75 16.78 26.75 19.38 C 27.78 18.89 28.81 18.39 29.84 17.89 C 30.87 18.40 31.90 18.90 32.93 19.40 C 32.95 16.75 32.95 14.10 32.88 11.44 C 31.85 10.97 30.81 10.49 29.78 10.01 C 28.76 10.53 27.75 11.05 26.74 11.57 M 2.06 21.80 C 2.06 23.56 2.06 25.31 2.07 27.06 C 3.11 26.56 4.14 26.05 5.18 25.54 C 6.20 26.05 7.23 26.55 8.25 27.05 C 8.25 25.30 8.25 23.55 8.26 21.80 C 7.23 21.28 6.20 20.76 5.18 20.25 C 4.14 20.77 3.10 21.29 2.06 21.80 M 10.39 21.78 C 10.38 23.53 10.38 25.28 10.37 27.03 C 11.36 26.53 12.36 26.02 13.36 25.52 C 14.13 25.90 15.67 26.65 16.44 27.02 C 16.44 25.27 16.44 23.52 16.44 21.77 C 15.40 21.27 14.35 20.77 13.31 20.27 C 12.58 20.65 11.12 21.40 10.39 21.78 M 18.56 21.78 C 18.56 23.50 18.55 25.22 18.54 26.95 C 20.55 25.59 22.65 25.43 24.65 26.95 C 24.63 25.23 24.62 23.51 24.62 21.80 C 23.88 21.41 22.40 20.65 21.66 20.26 C 20.63 20.77 19.60 21.27 18.56 21.78 M 26.75 21.79 C 26.75 23.55 26.74 25.31 26.74 27.06 C 27.76 26.56 28.79 26.05 29.81 25.55 C 30.87 26.05 31.92 26.56 32.97 27.07 C 32.94 25.24 32.90 23.41 32.81 21.58 C 32.05 21.26 30.53 20.60 29.77 20.28 C 28.76 20.78 27.76 21.29 26.75 21.79 M 1.85 31.64 C 2.99 31.15 4.12 30.64 5.25 30.13 C 6.59 30.80 7.93 31.47 9.27 32.15 C 10.64 31.47 12.01 30.80 13.38 30.13 C 14.83 30.73 16.18 31.83 17.78 31.91 C 19.11 31.43 20.36 30.76 21.63 30.13 C 22.99 30.80 24.35 31.47 25.72 32.15 C 27.06 31.47 28.41 30.80 29.77 30.13 C 30.89 30.64 32.01 31.15 33.14 31.65 C 33.49 29.38 31.52 28.68 29.87 27.89 C 28.56 28.56 27.25 29.29 25.85 29.78 C 24.34 29.59 23.04 28.56 21.66 27.96 C 20.23 28.62 18.80 29.29 17.37 29.95 C 16.04 29.26 14.70 28.59 13.36 27.93 C 12.11 28.58 10.88 29.27 9.56 29.78 C 7.96 29.59 6.58 28.54 5.13 27.89 C 3.48 28.68 1.51 29.37 1.85 31.64 Z" />
</g>
</svg>
